<?xml version="1.0" encoding="utf-8" standalone="no"?>
<!DOCTYPE svg PUBLIC "-//W3C//DTD SVG 1.1//EN"
  "http://www.w3.org/Graphics/SVG/1.1/DTD/svg11.dtd">
<svg xmlns:xlink="http://www.w3.org/1999/xlink" width="460.8pt" height="345.6pt" viewBox="0 0 460.8 345.6" xmlns="http://www.w3.org/2000/svg" version="1.1">
 <metadata>
  <rdf:RDF xmlns:dc="http://purl.org/dc/elements/1.1/" xmlns:cc="http://creativecommons.org/ns#" xmlns:rdf="http://www.w3.org/1999/02/22-rdf-syntax-ns#">
   <cc:Work>
    <dc:type rdf:resource="http://purl.org/dc/dcmitype/StillImage"/>
    <dc:date>2022-08-05T23:21:59.247363</dc:date>
    <dc:format>image/svg+xml</dc:format>
    <dc:creator>
     <cc:Agent>
      <dc:title>Matplotlib v3.5.2, https://matplotlib.org/</dc:title>
     </cc:Agent>
    </dc:creator>
   </cc:Work>
  </rdf:RDF>
 </metadata>
 <defs>
  <style type="text/css">*{stroke-linejoin: round; stroke-linecap: butt}</style>
 </defs>
 <g id="figure_1">
  <g id="patch_1">
   <path d="M 0 345.6 
L 460.8 345.6 
L 460.8 0 
L 0 0 
z
"/>
  </g>
  <g id="axes_1">
   <g id="patch_2">
    <path d="M 57.6 307.584 
L 414.72 307.584 
L 414.72 41.472 
L 57.6 41.472 
z
"/>
   </g>
   <g id="matplotlib.axis_1">
    <g id="xtick_1">
     <g id="line2d_1">
      <defs>
       <path id="m61cb55468a" d="M 0 0 
L 0 3.5 
" style="stroke: #ffffff; stroke-width: 0.8"/>
      </defs>
      <g>
       <use xlink:href="#m61cb55468a" x="57.6" y="307.584" style="fill: #ffffff; stroke: #ffffff; stroke-width: 0.8"/>
      </g>
     </g>
     <g id="text_1">
      <!-- $\mathdefault{0}$ -->
      <g style="fill: #ffffff" transform="translate(55.109332 321.502498)scale(0.1 -0.1)">
       <defs>
        <path id="CMR17-30" d="M 2688 2025 
C 2688 2416 2682 3080 2413 3591 
C 2176 4039 1798 4198 1466 4198 
C 1158 4198 768 4058 525 3597 
C 269 3118 243 2524 243 2025 
C 243 1661 250 1106 448 619 
C 723 -39 1216 -128 1466 -128 
C 1760 -128 2208 -7 2470 600 
C 2662 1042 2688 1559 2688 2025 
z
M 1466 -26 
C 1056 -26 813 325 723 812 
C 653 1188 653 1738 653 2096 
C 653 2588 653 2997 736 3387 
C 858 3929 1216 4096 1466 4096 
C 1728 4096 2067 3923 2189 3400 
C 2272 3036 2278 2607 2278 2096 
C 2278 1680 2278 1169 2202 792 
C 2067 95 1690 -26 1466 -26 
z
" transform="scale(0.015625)"/>
       </defs>
       <use xlink:href="#CMR17-30" transform="scale(0.996264)"/>
      </g>
     </g>
    </g>
    <g id="xtick_2">
     <g id="line2d_2">
      <g>
       <use xlink:href="#m61cb55468a" x="105.115048" y="307.584" style="fill: #ffffff; stroke: #ffffff; stroke-width: 0.8"/>
      </g>
     </g>
     <g id="text_2">
      <!-- $\mathdefault{1}$ -->
      <g style="fill: #ffffff" transform="translate(102.62438 321.502498)scale(0.1 -0.1)">
       <defs>
        <path id="CMR17-31" d="M 1702 4058 
C 1702 4192 1696 4192 1606 4192 
C 1357 3916 979 3827 621 3827 
C 602 3827 570 3827 563 3808 
C 557 3795 557 3782 557 3648 
C 755 3648 1088 3686 1344 3839 
L 1344 461 
C 1344 236 1331 160 781 160 
L 589 160 
L 589 0 
C 896 0 1216 0 1523 0 
C 1830 0 2150 0 2458 0 
L 2458 160 
L 2266 160 
C 1715 160 1702 230 1702 458 
L 1702 4058 
z
" transform="scale(0.015625)"/>
       </defs>
       <use xlink:href="#CMR17-31" transform="scale(0.996264)"/>
      </g>
     </g>
    </g>
    <g id="xtick_3">
     <g id="line2d_3">
      <g>
       <use xlink:href="#m61cb55468a" x="152.630095" y="307.584" style="fill: #ffffff; stroke: #ffffff; stroke-width: 0.8"/>
      </g>
     </g>
     <g id="text_3">
      <!-- $\mathdefault{2}$ -->
      <g style="fill: #ffffff" transform="translate(150.139427 321.502498)scale(0.1 -0.1)">
       <defs>
        <path id="CMR17-32" d="M 2669 989 
L 2554 989 
C 2490 536 2438 459 2413 420 
C 2381 369 1920 369 1830 369 
L 602 369 
C 832 619 1280 1072 1824 1597 
C 2214 1967 2669 2402 2669 3035 
C 2669 3790 2067 4224 1395 4224 
C 691 4224 262 3604 262 3030 
C 262 2780 448 2748 525 2748 
C 589 2748 781 2787 781 3010 
C 781 3207 614 3264 525 3264 
C 486 3264 448 3258 422 3245 
C 544 3790 915 4058 1306 4058 
C 1862 4058 2227 3617 2227 3035 
C 2227 2479 1901 2000 1536 1584 
L 262 146 
L 262 0 
L 2515 0 
L 2669 989 
z
" transform="scale(0.015625)"/>
       </defs>
       <use xlink:href="#CMR17-32" transform="scale(0.996264)"/>
      </g>
     </g>
    </g>
    <g id="xtick_4">
     <g id="line2d_4">
      <g>
       <use xlink:href="#m61cb55468a" x="200.145143" y="307.584" style="fill: #ffffff; stroke: #ffffff; stroke-width: 0.8"/>
      </g>
     </g>
     <g id="text_4">
      <!-- $\mathdefault{3}$ -->
      <g style="fill: #ffffff" transform="translate(197.654475 321.502498)scale(0.1 -0.1)">
       <defs>
        <path id="CMR17-33" d="M 1414 2157 
C 1984 2157 2234 1662 2234 1090 
C 2234 320 1824 25 1453 25 
C 1114 25 563 194 390 693 
C 422 680 454 680 486 680 
C 640 680 755 782 755 948 
C 755 1133 614 1216 486 1216 
C 378 1216 211 1165 211 926 
C 211 335 787 -128 1466 -128 
C 2176 -128 2720 430 2720 1085 
C 2720 1707 2208 2157 1600 2227 
C 2086 2328 2554 2756 2554 3329 
C 2554 3820 2048 4179 1472 4179 
C 890 4179 378 3829 378 3329 
C 378 3110 544 3072 627 3072 
C 762 3072 877 3155 877 3321 
C 877 3486 762 3569 627 3569 
C 602 3569 570 3569 544 3557 
C 730 3959 1235 4032 1459 4032 
C 1683 4032 2106 3925 2106 3320 
C 2106 3143 2080 2828 1862 2550 
C 1670 2304 1453 2304 1242 2284 
C 1210 2284 1062 2269 1037 2269 
C 992 2263 966 2257 966 2208 
C 966 2163 973 2157 1101 2157 
L 1414 2157 
z
" transform="scale(0.015625)"/>
       </defs>
       <use xlink:href="#CMR17-33" transform="scale(0.996264)"/>
      </g>
     </g>
    </g>
    <g id="xtick_5">
     <g id="line2d_5">
      <g>
       <use xlink:href="#m61cb55468a" x="247.66019" y="307.584" style="fill: #ffffff; stroke: #ffffff; stroke-width: 0.8"/>
      </g>
     </g>
     <g id="text_5">
      <!-- $\mathdefault{4}$ -->
      <g style="fill: #ffffff" transform="translate(245.169523 321.502498)scale(0.1 -0.1)">
       <defs>
        <path id="CMR17-34" d="M 2150 4122 
C 2150 4256 2144 4256 2029 4256 
L 128 1254 
L 128 1088 
L 1779 1088 
L 1779 457 
C 1779 224 1766 160 1318 160 
L 1197 160 
L 1197 0 
C 1402 0 1747 0 1965 0 
C 2182 0 2528 0 2733 0 
L 2733 160 
L 2611 160 
C 2163 160 2150 224 2150 457 
L 2150 1088 
L 2803 1088 
L 2803 1254 
L 2150 1254 
L 2150 4122 
z
M 1798 3703 
L 1798 1254 
L 256 1254 
L 1798 3703 
z
" transform="scale(0.015625)"/>
       </defs>
       <use xlink:href="#CMR17-34" transform="scale(0.996264)"/>
      </g>
     </g>
    </g>
    <g id="xtick_6">
     <g id="line2d_6">
      <g>
       <use xlink:href="#m61cb55468a" x="295.175238" y="307.584" style="fill: #ffffff; stroke: #ffffff; stroke-width: 0.8"/>
      </g>
     </g>
     <g id="text_6">
      <!-- $\mathdefault{5}$ -->
      <g style="fill: #ffffff" transform="translate(292.68457 321.502498)scale(0.1 -0.1)">
       <defs>
        <path id="CMR17-35" d="M 730 3692 
C 794 3666 1056 3584 1325 3584 
C 1920 3584 2246 3911 2432 4100 
C 2432 4157 2432 4192 2394 4192 
C 2387 4192 2374 4192 2323 4163 
C 2099 4058 1837 3973 1517 3973 
C 1325 3973 1037 3999 723 4139 
C 653 4171 640 4171 634 4171 
C 602 4171 595 4164 595 4037 
L 595 2203 
C 595 2089 595 2057 659 2057 
C 691 2057 704 2070 736 2114 
C 941 2401 1222 2522 1542 2522 
C 1766 2522 2246 2382 2246 1289 
C 2246 1085 2246 715 2054 421 
C 1894 159 1645 25 1370 25 
C 947 25 518 320 403 814 
C 429 807 480 795 506 795 
C 589 795 749 840 749 1038 
C 749 1210 627 1280 506 1280 
C 358 1280 262 1190 262 1011 
C 262 454 704 -128 1382 -128 
C 2042 -128 2669 440 2669 1264 
C 2669 2030 2170 2624 1549 2624 
C 1222 2624 947 2503 730 2274 
L 730 3692 
z
" transform="scale(0.015625)"/>
       </defs>
       <use xlink:href="#CMR17-35" transform="scale(0.996264)"/>
      </g>
     </g>
    </g>
    <g id="xtick_7">
     <g id="line2d_7">
      <g>
       <use xlink:href="#m61cb55468a" x="342.690285" y="307.584" style="fill: #ffffff; stroke: #ffffff; stroke-width: 0.8"/>
      </g>
     </g>
     <g id="text_7">
      <!-- $\mathdefault{6}$ -->
      <g style="fill: #ffffff" transform="translate(340.199618 321.502498)scale(0.1 -0.1)">
       <defs>
        <path id="CMR17-36" d="M 678 2176 
C 678 3690 1395 4032 1811 4032 
C 1946 4032 2272 4009 2400 3776 
C 2298 3776 2106 3776 2106 3553 
C 2106 3381 2246 3323 2336 3323 
C 2394 3323 2566 3348 2566 3560 
C 2566 3954 2246 4179 1805 4179 
C 1043 4179 243 3390 243 1984 
C 243 253 966 -128 1478 -128 
C 2099 -128 2688 427 2688 1283 
C 2688 2081 2170 2662 1517 2662 
C 1126 2662 838 2407 678 1960 
L 678 2176 
z
M 1478 25 
C 691 25 691 1200 691 1436 
C 691 1896 909 2560 1504 2560 
C 1613 2560 1926 2560 2138 2120 
C 2253 1870 2253 1609 2253 1289 
C 2253 944 2253 690 2118 434 
C 1978 171 1773 25 1478 25 
z
" transform="scale(0.015625)"/>
       </defs>
       <use xlink:href="#CMR17-36" transform="scale(0.996264)"/>
      </g>
     </g>
    </g>
    <g id="xtick_8">
     <g id="line2d_8">
      <g>
       <use xlink:href="#m61cb55468a" x="390.205333" y="307.584" style="fill: #ffffff; stroke: #ffffff; stroke-width: 0.8"/>
      </g>
     </g>
     <g id="text_8">
      <!-- $\mathdefault{7}$ -->
      <g style="fill: #ffffff" transform="translate(387.714665 321.502498)scale(0.1 -0.1)">
       <defs>
        <path id="CMR17-37" d="M 2886 3941 
L 2886 4081 
L 1382 4081 
C 634 4081 621 4165 595 4288 
L 480 4288 
L 294 3094 
L 410 3094 
C 429 3215 474 3540 550 3661 
C 589 3712 1062 3712 1171 3712 
L 2579 3712 
L 1869 2661 
C 1395 1954 1069 999 1069 165 
C 1069 89 1069 -128 1299 -128 
C 1530 -128 1530 89 1530 171 
L 1530 465 
C 1530 1508 1709 2196 2003 2636 
L 2886 3941 
z
" transform="scale(0.015625)"/>
       </defs>
       <use xlink:href="#CMR17-37" transform="scale(0.996264)"/>
      </g>
     </g>
    </g>
    <g id="text_9">
     <!-- $Lm_{\mathrm{PCAC}}^{1/y_m}$ -->
     <g style="fill: #ffffff" transform="translate(217.198619 337.845084)scale(0.1 -0.1)">
      <defs>
       <path id="CMMI12-4c" d="M 2349 3861 
C 2406 4103 2426 4167 2989 4167 
C 3162 4167 3206 4167 3206 4288 
C 3206 4352 3136 4352 3110 4352 
C 2982 4352 2835 4352 2707 4352 
L 1850 4352 
C 1728 4352 1587 4352 1466 4352 
C 1414 4352 1344 4352 1344 4231 
C 1344 4167 1402 4167 1498 4167 
C 1888 4167 1888 4116 1888 4046 
C 1888 4034 1888 3995 1862 3899 
L 998 472 
C 941 249 928 185 480 185 
C 358 185 294 185 294 70 
C 294 0 333 0 461 0 
L 3328 0 
C 3469 0 3475 6 3520 121 
L 4013 1478 
C 4026 1510 4038 1548 4038 1567 
C 4038 1605 4006 1631 3974 1631 
C 3968 1631 3936 1631 3923 1605 
C 3910 1599 3910 1586 3859 1465 
C 3654 905 3366 185 2285 185 
L 1670 185 
C 1581 185 1568 185 1530 192 
C 1459 198 1453 211 1453 262 
C 1453 307 1466 345 1478 401 
L 2349 3861 
z
" transform="scale(0.015625)"/>
       <path id="CMMI12-6d" d="M 1318 1871 
C 1331 1910 1491 2229 1728 2433 
C 1894 2586 2112 2689 2362 2689 
C 2618 2689 2707 2497 2707 2242 
C 2707 2203 2707 2076 2630 1775 
L 2470 1118 
C 2419 926 2298 453 2285 383 
C 2259 287 2221 121 2221 96 
C 2221 6 2291 -64 2387 -64 
C 2579 -64 2611 83 2669 313 
L 3053 1839 
C 3066 1890 3398 2689 4102 2689 
C 4358 2689 4448 2497 4448 2242 
C 4448 1884 4198 1188 4058 805 
C 4000 651 3968 568 3968 453 
C 3968 166 4166 -64 4474 -64 
C 5069 -64 5293 875 5293 913 
C 5293 945 5267 971 5229 971 
C 5171 971 5165 952 5133 843 
C 4986 332 4749 64 4493 64 
C 4429 64 4326 64 4326 269 
C 4326 436 4403 640 4429 710 
C 4544 1018 4832 1773 4832 2145 
C 4832 2528 4608 2816 4122 2816 
C 3693 2816 3347 2574 3091 2197 
C 3072 2542 2861 2816 2381 2816 
C 1811 2816 1510 2415 1395 2255 
C 1376 2618 1114 2816 832 2816 
C 646 2816 499 2727 378 2484 
C 262 2254 173 1865 173 1839 
C 173 1814 198 1782 243 1782 
C 294 1782 301 1788 339 1935 
C 435 2312 557 2689 813 2689 
C 960 2689 1011 2586 1011 2395 
C 1011 2254 947 2005 902 1807 
L 723 1118 
C 698 996 627 709 595 594 
C 550 428 480 128 480 96 
C 480 6 550 -64 646 -64 
C 723 -64 813 -26 864 70 
C 877 102 934 326 966 453 
L 1107 1028 
L 1318 1871 
z
" transform="scale(0.015625)"/>
       <path id="CMMI12-3d" d="M 2746 4562 
C 2746 4569 2784 4666 2784 4678 
C 2784 4755 2720 4800 2669 4800 
C 2637 4800 2579 4800 2528 4659 
L 384 -1363 
C 384 -1370 346 -1465 346 -1478 
C 346 -1555 410 -1600 461 -1600 
C 499 -1600 557 -1593 602 -1459 
L 2746 4562 
z
" transform="scale(0.015625)"/>
       <path id="CMMI12-79" d="M 1683 -700 
C 1510 -939 1261 -1152 947 -1152 
C 870 -1152 563 -1152 467 -889 
C 486 -895 518 -895 531 -895 
C 723 -895 851 -729 851 -582 
C 851 -435 730 -384 634 -384 
C 531 -384 307 -458 307 -759 
C 307 -1071 582 -1286 947 -1286 
C 1587 -1286 2234 -700 2413 6 
L 3040 2485 
C 3046 2517 3059 2556 3059 2594 
C 3059 2689 2982 2753 2886 2753 
C 2829 2753 2694 2727 2643 2535 
L 2170 658 
C 2138 543 2138 530 2086 460 
C 1958 281 1747 64 1440 64 
C 1082 64 1050 415 1050 588 
C 1050 952 1222 1443 1395 1903 
C 1466 2088 1504 2178 1504 2305 
C 1504 2574 1312 2816 998 2816 
C 410 2816 173 1890 173 1839 
C 173 1814 198 1782 243 1782 
C 301 1782 307 1807 333 1897 
C 486 2433 730 2689 979 2689 
C 1037 2689 1146 2689 1146 2478 
C 1146 2312 1075 2127 979 1884 
C 666 1047 666 837 666 683 
C 666 77 1101 -64 1421 -64 
C 1606 -64 1837 -6 2061 230 
L 2067 224 
C 1971 -147 1907 -392 1683 -700 
z
" transform="scale(0.015625)"/>
       <path id="CMR17-50" d="M 1267 2042 
L 2291 2042 
C 3117 2042 3718 2578 3718 3184 
C 3718 3791 3130 4352 2291 4352 
L 333 4352 
L 333 4186 
C 774 4186 845 4186 845 3899 
L 845 446 
C 845 160 774 160 333 160 
L 333 0 
C 518 0 858 0 1056 0 
C 1254 0 1594 0 1779 0 
L 1779 160 
C 1338 160 1267 160 1267 446 
L 1267 2042 
z
M 1254 2176 
L 1254 3938 
C 1254 4155 1267 4186 1523 4186 
L 2170 4186 
C 2995 4186 3232 3714 3232 3184 
C 3232 2604 2950 2176 2170 2176 
L 1254 2176 
z
" transform="scale(0.015625)"/>
       <path id="CMR17-43" d="M 3974 4289 
C 3974 4403 3968 4410 3930 4410 
C 3904 4410 3898 4403 3853 4327 
L 3571 3792 
C 3258 4187 2874 4416 2381 4416 
C 1286 4416 294 3456 294 2148 
C 294 826 1286 -128 2387 -128 
C 3366 -128 3974 730 3974 1461 
C 3974 1524 3974 1550 3917 1550 
C 3866 1550 3866 1531 3859 1474 
C 3808 585 3168 38 2477 38 
C 1824 38 781 495 781 2147 
C 781 3805 1843 4250 2464 4250 
C 3187 4250 3712 3628 3834 2745 
C 3846 2668 3846 2655 3904 2655 
C 3974 2655 3974 2668 3974 2783 
L 3974 4289 
z
" transform="scale(0.015625)"/>
       <path id="CMR17-41" d="M 2323 4378 
C 2291 4461 2278 4480 2214 4480 
C 2150 4480 2138 4461 2106 4378 
L 749 566 
C 627 223 371 153 147 153 
L 147 -13 
C 262 0 518 0 640 0 
C 800 0 1056 0 1210 -13 
L 1210 153 
C 909 153 864 361 864 439 
C 864 497 877 530 890 569 
L 1229 1536 
L 2906 1536 
L 3290 442 
C 3322 365 3322 352 3322 327 
C 3322 153 3046 153 2925 153 
L 2925 0 
C 3110 0 3443 0 3642 0 
C 3808 0 4128 0 4282 -13 
L 4282 153 
C 3942 153 3827 153 3744 387 
L 2323 4378 
z
M 2067 3893 
L 2848 1702 
L 1286 1702 
L 2067 3893 
z
" transform="scale(0.015625)"/>
      </defs>
      <use xlink:href="#CMMI12-4c" transform="scale(0.996264)"/>
      <use xlink:href="#CMMI12-6d" transform="translate(66.370875 0)scale(0.996264)"/>
      <use xlink:href="#CMR17-31" transform="translate(151.6981 51.750272)scale(0.697382)"/>
      <use xlink:href="#CMMI12-3d" transform="translate(183.681282 51.750272)scale(0.697382)"/>
      <use xlink:href="#CMMI12-79" transform="translate(217.823573 51.750272)scale(0.697382)"/>
      <use xlink:href="#CMMI12-6d" transform="translate(251.11835 41.289576)scale(0.498132)"/>
      <use xlink:href="#CMR17-50" transform="translate(151.6981 -29.268645)scale(0.697382)"/>
      <use xlink:href="#CMR17-43" transform="translate(195.508314 -29.268645)scale(0.697382)"/>
      <use xlink:href="#CMR17-41" transform="translate(242.065019 -29.268645)scale(0.697382)"/>
      <use xlink:href="#CMR17-43" transform="translate(288.593783 -29.268645)scale(0.697382)"/>
     </g>
    </g>
   </g>
   <g id="matplotlib.axis_2">
    <g id="ytick_1">
     <g id="line2d_9">
      <defs>
       <path id="m408647e82e" d="M 0 0 
L -3.5 0 
" style="stroke: #ffffff; stroke-width: 0.8"/>
      </defs>
      <g>
       <use xlink:href="#m408647e82e" x="57.6" y="307.584" style="fill: #ffffff; stroke: #ffffff; stroke-width: 0.8"/>
      </g>
     </g>
     <g id="text_10">
      <!-- $\mathdefault{0.0}$ -->
      <g style="fill: #ffffff" transform="translate(37.869921 311.043249)scale(0.1 -0.1)">
       <defs>
        <path id="CMMI12-3a" d="M 1178 307 
C 1178 492 1024 619 870 619 
C 685 619 557 466 557 313 
C 557 128 710 0 864 0 
C 1050 0 1178 153 1178 307 
z
" transform="scale(0.015625)"/>
       </defs>
       <use xlink:href="#CMR17-30" transform="scale(0.996264)"/>
       <use xlink:href="#CMMI12-3a" transform="translate(45.690477 0)scale(0.996264)"/>
       <use xlink:href="#CMR17-30" transform="translate(72.787654 0)scale(0.996264)"/>
      </g>
     </g>
    </g>
    <g id="ytick_2">
     <g id="line2d_10">
      <g>
       <use xlink:href="#m408647e82e" x="57.6" y="276.58663" style="fill: #ffffff; stroke: #ffffff; stroke-width: 0.8"/>
      </g>
     </g>
     <g id="text_11">
      <!-- $\mathdefault{2.5}$ -->
      <g style="fill: #ffffff" transform="translate(37.869921 280.045879)scale(0.1 -0.1)">
       <use xlink:href="#CMR17-32" transform="scale(0.996264)"/>
       <use xlink:href="#CMMI12-3a" transform="translate(45.690477 0)scale(0.996264)"/>
       <use xlink:href="#CMR17-35" transform="translate(72.787654 0)scale(0.996264)"/>
      </g>
     </g>
    </g>
    <g id="ytick_3">
     <g id="line2d_11">
      <g>
       <use xlink:href="#m408647e82e" x="57.6" y="245.58926" style="fill: #ffffff; stroke: #ffffff; stroke-width: 0.8"/>
      </g>
     </g>
     <g id="text_12">
      <!-- $\mathdefault{5.0}$ -->
      <g style="fill: #ffffff" transform="translate(37.869921 249.04851)scale(0.1 -0.1)">
       <use xlink:href="#CMR17-35" transform="scale(0.996264)"/>
       <use xlink:href="#CMMI12-3a" transform="translate(45.690477 0)scale(0.996264)"/>
       <use xlink:href="#CMR17-30" transform="translate(72.787654 0)scale(0.996264)"/>
      </g>
     </g>
    </g>
    <g id="ytick_4">
     <g id="line2d_12">
      <g>
       <use xlink:href="#m408647e82e" x="57.6" y="214.59189" style="fill: #ffffff; stroke: #ffffff; stroke-width: 0.8"/>
      </g>
     </g>
     <g id="text_13">
      <!-- $\mathdefault{7.5}$ -->
      <g style="fill: #ffffff" transform="translate(37.869921 218.05114)scale(0.1 -0.1)">
       <use xlink:href="#CMR17-37" transform="scale(0.996264)"/>
       <use xlink:href="#CMMI12-3a" transform="translate(45.690477 0)scale(0.996264)"/>
       <use xlink:href="#CMR17-35" transform="translate(72.787654 0)scale(0.996264)"/>
      </g>
     </g>
    </g>
    <g id="ytick_5">
     <g id="line2d_13">
      <g>
       <use xlink:href="#m408647e82e" x="57.6" y="183.594521" style="fill: #ffffff; stroke: #ffffff; stroke-width: 0.8"/>
      </g>
     </g>
     <g id="text_14">
      <!-- $\mathdefault{10.0}$ -->
      <g style="fill: #ffffff" transform="translate(32.888586 187.05377)scale(0.1 -0.1)">
       <use xlink:href="#CMR17-31" transform="scale(0.996264)"/>
       <use xlink:href="#CMR17-30" transform="translate(45.690477 0)scale(0.996264)"/>
       <use xlink:href="#CMMI12-3a" transform="translate(91.380954 0)scale(0.996264)"/>
       <use xlink:href="#CMR17-30" transform="translate(118.478131 0)scale(0.996264)"/>
      </g>
     </g>
    </g>
    <g id="ytick_6">
     <g id="line2d_14">
      <g>
       <use xlink:href="#m408647e82e" x="57.6" y="152.597151" style="fill: #ffffff; stroke: #ffffff; stroke-width: 0.8"/>
      </g>
     </g>
     <g id="text_15">
      <!-- $\mathdefault{12.5}$ -->
      <g style="fill: #ffffff" transform="translate(32.888586 156.0564)scale(0.1 -0.1)">
       <use xlink:href="#CMR17-31" transform="scale(0.996264)"/>
       <use xlink:href="#CMR17-32" transform="translate(45.690477 0)scale(0.996264)"/>
       <use xlink:href="#CMMI12-3a" transform="translate(91.380954 0)scale(0.996264)"/>
       <use xlink:href="#CMR17-35" transform="translate(118.478131 0)scale(0.996264)"/>
      </g>
     </g>
    </g>
    <g id="ytick_7">
     <g id="line2d_15">
      <g>
       <use xlink:href="#m408647e82e" x="57.6" y="121.599781" style="fill: #ffffff; stroke: #ffffff; stroke-width: 0.8"/>
      </g>
     </g>
     <g id="text_16">
      <!-- $\mathdefault{15.0}$ -->
      <g style="fill: #ffffff" transform="translate(32.888586 125.05903)scale(0.1 -0.1)">
       <use xlink:href="#CMR17-31" transform="scale(0.996264)"/>
       <use xlink:href="#CMR17-35" transform="translate(45.690477 0)scale(0.996264)"/>
       <use xlink:href="#CMMI12-3a" transform="translate(91.380954 0)scale(0.996264)"/>
       <use xlink:href="#CMR17-30" transform="translate(118.478131 0)scale(0.996264)"/>
      </g>
     </g>
    </g>
    <g id="ytick_8">
     <g id="line2d_16">
      <g>
       <use xlink:href="#m408647e82e" x="57.6" y="90.602411" style="fill: #ffffff; stroke: #ffffff; stroke-width: 0.8"/>
      </g>
     </g>
     <g id="text_17">
      <!-- $\mathdefault{17.5}$ -->
      <g style="fill: #ffffff" transform="translate(32.888586 94.06166)scale(0.1 -0.1)">
       <use xlink:href="#CMR17-31" transform="scale(0.996264)"/>
       <use xlink:href="#CMR17-37" transform="translate(45.690477 0)scale(0.996264)"/>
       <use xlink:href="#CMMI12-3a" transform="translate(91.380954 0)scale(0.996264)"/>
       <use xlink:href="#CMR17-35" transform="translate(118.478131 0)scale(0.996264)"/>
      </g>
     </g>
    </g>
    <g id="ytick_9">
     <g id="line2d_17">
      <g>
       <use xlink:href="#m408647e82e" x="57.6" y="59.605041" style="fill: #ffffff; stroke: #ffffff; stroke-width: 0.8"/>
      </g>
     </g>
     <g id="text_18">
      <!-- $\mathdefault{20.0}$ -->
      <g style="fill: #ffffff" transform="translate(32.888586 63.06429)scale(0.1 -0.1)">
       <use xlink:href="#CMR17-32" transform="scale(0.996264)"/>
       <use xlink:href="#CMR17-30" transform="translate(45.690477 0)scale(0.996264)"/>
       <use xlink:href="#CMMI12-3a" transform="translate(91.380954 0)scale(0.996264)"/>
       <use xlink:href="#CMR17-30" transform="translate(118.478131 0)scale(0.996264)"/>
      </g>
     </g>
    </g>
    <g id="text_19">
     <!-- $LM_{\gamma_5}/(1+c_0m^\omega)$ -->
     <g style="fill: #ffffff" transform="translate(26.038191 213.627896)rotate(-90)scale(0.1 -0.1)">
      <defs>
       <path id="CMMI12-4d" d="M 5811 3886 
C 5869 4103 5882 4167 6336 4167 
C 6458 4167 6515 4167 6515 4288 
C 6515 4352 6470 4352 6349 4352 
L 5581 4352 
C 5421 4352 5414 4346 5344 4243 
L 3008 562 
L 2528 4211 
C 2509 4352 2502 4352 2336 4352 
L 1542 4352 
C 1421 4352 1363 4352 1363 4231 
C 1363 4167 1421 4167 1517 4167 
C 1907 4167 1907 4116 1907 4046 
C 1907 4034 1907 3995 1882 3899 
L 1062 634 
C 986 327 838 186 410 186 
C 390 186 314 186 314 73 
C 314 0 371 0 397 0 
C 525 0 851 0 979 0 
L 1286 0 
C 1376 0 1485 0 1574 0 
C 1619 0 1690 0 1690 122 
C 1690 180 1626 186 1600 186 
C 1389 186 1184 224 1184 454 
C 1184 518 1184 524 1210 613 
L 2093 4129 
L 2099 4129 
L 2630 172 
C 2650 19 2656 0 2714 0 
C 2784 0 2816 51 2848 109 
L 5421 4161 
L 5427 4161 
L 4499 473 
C 4442 250 4429 186 3981 186 
C 3859 186 3795 186 3795 70 
C 3795 0 3853 0 3891 0 
C 4000 0 4128 0 4237 0 
L 4992 0 
C 5101 0 5235 0 5344 0 
C 5395 0 5466 0 5466 122 
C 5466 186 5408 186 5312 186 
C 4922 186 4922 234 4922 294 
C 4922 301 4922 345 4934 396 
L 5811 3886 
z
" transform="scale(0.015625)"/>
       <path id="CMMI12-d" d="M 2419 760 
C 2406 1071 2394 1561 2150 2133 
C 2022 2452 1805 2788 1338 2788 
C 550 2788 122 1790 122 1625 
C 122 1567 166 1567 186 1567 
C 243 1567 243 1580 275 1663 
C 410 2057 819 2368 1261 2368 
C 2150 2368 2278 1383 2278 754 
C 2278 352 2234 220 2195 92 
C 2074 -302 1862 -1090 1862 -1268 
C 1862 -1319 1882 -1376 1933 -1376 
C 2029 -1376 2086 -1166 2157 -912 
C 2310 -353 2349 -73 2381 181 
C 2400 334 2765 1384 3270 2382 
C 3315 2483 3405 2655 3405 2674 
C 3405 2680 3398 2725 3341 2725 
C 3328 2725 3296 2725 3283 2699 
C 3270 2687 3046 2254 2854 1822 
C 2758 1606 2630 1320 2419 760 
z
" transform="scale(0.015625)"/>
       <path id="CMR17-28" d="M 1958 -1561 
C 1958 -1555 1958 -1542 1939 -1523 
C 1645 -1224 858 -407 858 1581 
C 858 3569 1632 4379 1946 4697 
C 1946 4704 1958 4717 1958 4736 
C 1958 4755 1939 4768 1914 4768 
C 1843 4768 1299 4296 986 3594 
C 666 2887 576 2199 576 1588 
C 576 1128 621 351 1005 -471 
C 1312 -1135 1837 -1600 1914 -1600 
C 1946 -1600 1958 -1587 1958 -1561 
z
" transform="scale(0.015625)"/>
       <path id="CMR17-2b" d="M 2413 1472 
L 4109 1472 
C 4198 1472 4307 1472 4307 1580 
C 4307 1695 4205 1695 4109 1695 
L 2413 1695 
L 2413 3386 
C 2413 3475 2413 3584 2304 3584 
C 2189 3584 2189 3482 2189 3386 
L 2189 1695 
L 493 1695 
C 403 1695 294 1695 294 1587 
C 294 1472 397 1472 493 1472 
L 2189 1472 
L 2189 -218 
C 2189 -307 2189 -416 2298 -416 
C 2413 -416 2413 -314 2413 -218 
L 2413 1472 
z
" transform="scale(0.015625)"/>
       <path id="CMMI12-63" d="M 2502 2431 
C 2381 2431 2323 2431 2234 2355 
C 2195 2323 2125 2227 2125 2125 
C 2125 1997 2221 1920 2342 1920 
C 2496 1920 2669 2044 2669 2292 
C 2669 2588 2374 2816 1933 2816 
C 1094 2816 256 1903 256 996 
C 256 441 602 -64 1254 -64 
C 2125 -64 2675 622 2675 706 
C 2675 744 2637 776 2611 776 
C 2592 776 2586 770 2528 713 
C 2118 162 1510 64 1267 64 
C 826 64 685 446 685 764 
C 685 988 794 1605 1024 2039 
C 1190 2338 1536 2682 1939 2682 
C 2022 2682 2374 2682 2502 2431 
z
" transform="scale(0.015625)"/>
       <path id="CMMI12-21" d="M 3802 2395 
C 3802 2580 3750 2816 3526 2816 
C 3398 2816 3251 2657 3251 2529 
C 3251 2472 3277 2434 3328 2376 
C 3424 2268 3546 2096 3546 1797 
C 3546 1567 3405 1204 3302 1007 
C 3123 656 2829 357 2496 357 
C 2093 357 1939 615 1869 975 
C 1939 1143 2086 1560 2086 1728 
C 2086 1798 2061 1856 1978 1856 
C 1933 1856 1882 1831 1850 1779 
C 1760 1638 1677 1129 1683 994 
C 1562 756 1216 357 806 357 
C 378 357 262 733 262 1096 
C 262 1758 678 2338 794 2497 
C 858 2593 902 2657 902 2669 
C 902 2714 877 2784 819 2784 
C 717 2784 685 2701 634 2625 
C 307 2121 77 1414 77 803 
C 77 408 224 -64 704 -64 
C 1235 -64 1568 391 1702 634 
C 1754 275 1946 -64 2413 -64 
C 2899 -64 3206 363 3437 879 
C 3603 1249 3802 2045 3802 2395 
z
" transform="scale(0.015625)"/>
       <path id="CMR17-29" d="M 1683 1581 
C 1683 2040 1638 2817 1254 3639 
C 947 4303 422 4768 346 4768 
C 326 4768 301 4761 301 4729 
C 301 4717 307 4710 314 4697 
C 621 4378 1402 3568 1402 1584 
C 1402 -407 627 -1217 314 -1537 
C 307 -1549 301 -1556 301 -1568 
C 301 -1600 326 -1600 346 -1600 
C 416 -1600 960 -1128 1274 -426 
C 1594 281 1683 969 1683 1581 
z
" transform="scale(0.015625)"/>
      </defs>
      <use xlink:href="#CMMI12-4c" transform="scale(0.996264)"/>
      <use xlink:href="#CMMI12-4d" transform="translate(66.370875 0)scale(0.996264)"/>
      <use xlink:href="#CMMI12-d" transform="translate(160.744301 -14.943915)scale(0.697382)"/>
      <use xlink:href="#CMR17-35" transform="translate(196.163526 -25.404611)scale(0.498132)"/>
      <use xlink:href="#CMMI12-3d" transform="translate(220.005029 0)scale(0.996264)"/>
      <use xlink:href="#CMR17-28" transform="translate(268.779948 0)scale(0.996264)"/>
      <use xlink:href="#CMR17-31" transform="translate(304.060715 0)scale(0.996264)"/>
      <use xlink:href="#CMR17-2b" transform="translate(371.890399 0)scale(0.996264)"/>
      <use xlink:href="#CMMI12-63" transform="translate(465.744395 0)scale(0.996264)"/>
      <use xlink:href="#CMR17-30" transform="translate(507.727628 -14.943915)scale(0.697382)"/>
      <use xlink:href="#CMMI12-6d" transform="translate(540.208942 0)scale(0.996264)"/>
      <use xlink:href="#CMMI12-21" transform="translate(625.536167 36.153639)scale(0.697382)"/>
      <use xlink:href="#CMR17-29" transform="translate(671.056931 0)scale(0.996264)"/>
     </g>
    </g>
   </g>
   <g id="LineCollection_1">
    <path d="M 338.10125 103.172686 
L 338.10125 102.853299 
" clip-path="url(#pf3468343a8)" style="fill: none; stroke: #8dd3c7"/>
    <path d="M 297.701838 133.68745 
L 297.701838 133.525814 
" clip-path="url(#pf3468343a8)" style="fill: none; stroke: #8dd3c7"/>
    <path d="M 289.73234 139.209125 
L 289.73234 138.988001 
" clip-path="url(#pf3468343a8)" style="fill: none; stroke: #8dd3c7"/>
    <path d="M 280.883308 145.258115 
L 280.883308 144.996253 
" clip-path="url(#pf3468343a8)" style="fill: none; stroke: #8dd3c7"/>
    <path d="M 343.369941 99.488508 
L 343.369941 99.253166 
" clip-path="url(#pf3468343a8)" style="fill: none; stroke: #8dd3c7"/>
    <path d="M 272.069871 151.269206 
L 272.069871 150.967772 
" clip-path="url(#pf3468343a8)" style="fill: none; stroke: #8dd3c7"/>
    <path d="M 329.34439 109.460183 
L 329.34439 109.204668 
" clip-path="url(#pf3468343a8)" style="fill: none; stroke: #8dd3c7"/>
    <path d="M 261.565817 158.856969 
L 261.565817 158.480593 
" clip-path="url(#pf3468343a8)" style="fill: none; stroke: #8dd3c7"/>
    <path d="M 250.492853 166.691047 
L 250.492853 166.296167 
" clip-path="url(#pf3468343a8)" style="fill: none; stroke: #8dd3c7"/>
    <path d="M 298.548631 131.490887 
L 298.548631 131.151993 
" clip-path="url(#pf3468343a8)" style="fill: none; stroke: #8dd3c7"/>
    <path d="M 237.878249 175.890494 
L 237.878249 175.405238 
" clip-path="url(#pf3468343a8)" style="fill: none; stroke: #8dd3c7"/>
    <path d="M 279.445032 145.757736 
L 279.445032 145.320089 
" clip-path="url(#pf3468343a8)" style="fill: none; stroke: #8dd3c7"/>
    <path d="M 357.824911 88.799309 
L 357.824911 88.430806 
" clip-path="url(#pf3468343a8)" style="fill: none; stroke: #8dd3c7"/>
    <path d="M 257.724337 161.833985 
L 257.724337 161.280243 
" clip-path="url(#pf3468343a8)" style="fill: none; stroke: #8dd3c7"/>
    <path d="M 318.718668 117.749409 
L 318.718668 117.289701 
" clip-path="url(#pf3468343a8)" style="fill: none; stroke: #8dd3c7"/>
    <path d="M 279.31712 147.366211 
L 279.31712 146.71872 
" clip-path="url(#pf3468343a8)" style="fill: none; stroke: #8dd3c7"/>
    <path d="M 287.168728 141.243096 
L 287.168728 140.790271 
" clip-path="url(#pf3468343a8)" style="fill: none; stroke: #8dd3c7"/>
   </g>
   <g id="line2d_18">
    <defs>
     <path id="meb42fbdf6d" d="M 2 0 
L -2 -0 
" style="stroke: #8dd3c7"/>
    </defs>
    <g clip-path="url(#pf3468343a8)">
     <use xlink:href="#meb42fbdf6d" x="338.10125" y="103.172686" style="fill: #8dd3c7; stroke: #8dd3c7"/>
     <use xlink:href="#meb42fbdf6d" x="297.701838" y="133.68745" style="fill: #8dd3c7; stroke: #8dd3c7"/>
     <use xlink:href="#meb42fbdf6d" x="289.73234" y="139.209125" style="fill: #8dd3c7; stroke: #8dd3c7"/>
     <use xlink:href="#meb42fbdf6d" x="280.883308" y="145.258115" style="fill: #8dd3c7; stroke: #8dd3c7"/>
     <use xlink:href="#meb42fbdf6d" x="343.369941" y="99.488508" style="fill: #8dd3c7; stroke: #8dd3c7"/>
     <use xlink:href="#meb42fbdf6d" x="272.069871" y="151.269206" style="fill: #8dd3c7; stroke: #8dd3c7"/>
     <use xlink:href="#meb42fbdf6d" x="329.34439" y="109.460183" style="fill: #8dd3c7; stroke: #8dd3c7"/>
     <use xlink:href="#meb42fbdf6d" x="261.565817" y="158.856969" style="fill: #8dd3c7; stroke: #8dd3c7"/>
     <use xlink:href="#meb42fbdf6d" x="250.492853" y="166.691047" style="fill: #8dd3c7; stroke: #8dd3c7"/>
     <use xlink:href="#meb42fbdf6d" x="298.548631" y="131.490887" style="fill: #8dd3c7; stroke: #8dd3c7"/>
     <use xlink:href="#meb42fbdf6d" x="237.878249" y="175.890494" style="fill: #8dd3c7; stroke: #8dd3c7"/>
     <use xlink:href="#meb42fbdf6d" x="279.445032" y="145.757736" style="fill: #8dd3c7; stroke: #8dd3c7"/>
     <use xlink:href="#meb42fbdf6d" x="357.824911" y="88.799309" style="fill: #8dd3c7; stroke: #8dd3c7"/>
     <use xlink:href="#meb42fbdf6d" x="257.724337" y="161.833985" style="fill: #8dd3c7; stroke: #8dd3c7"/>
     <use xlink:href="#meb42fbdf6d" x="318.718668" y="117.749409" style="fill: #8dd3c7; stroke: #8dd3c7"/>
     <use xlink:href="#meb42fbdf6d" x="279.31712" y="147.366211" style="fill: #8dd3c7; stroke: #8dd3c7"/>
     <use xlink:href="#meb42fbdf6d" x="287.168728" y="141.243096" style="fill: #8dd3c7; stroke: #8dd3c7"/>
    </g>
   </g>
   <g id="line2d_19">
    <g clip-path="url(#pf3468343a8)">
     <use xlink:href="#meb42fbdf6d" x="338.10125" y="102.853299" style="fill: #8dd3c7; stroke: #8dd3c7"/>
     <use xlink:href="#meb42fbdf6d" x="297.701838" y="133.525814" style="fill: #8dd3c7; stroke: #8dd3c7"/>
     <use xlink:href="#meb42fbdf6d" x="289.73234" y="138.988001" style="fill: #8dd3c7; stroke: #8dd3c7"/>
     <use xlink:href="#meb42fbdf6d" x="280.883308" y="144.996253" style="fill: #8dd3c7; stroke: #8dd3c7"/>
     <use xlink:href="#meb42fbdf6d" x="343.369941" y="99.253166" style="fill: #8dd3c7; stroke: #8dd3c7"/>
     <use xlink:href="#meb42fbdf6d" x="272.069871" y="150.967772" style="fill: #8dd3c7; stroke: #8dd3c7"/>
     <use xlink:href="#meb42fbdf6d" x="329.34439" y="109.204668" style="fill: #8dd3c7; stroke: #8dd3c7"/>
     <use xlink:href="#meb42fbdf6d" x="261.565817" y="158.480593" style="fill: #8dd3c7; stroke: #8dd3c7"/>
     <use xlink:href="#meb42fbdf6d" x="250.492853" y="166.296167" style="fill: #8dd3c7; stroke: #8dd3c7"/>
     <use xlink:href="#meb42fbdf6d" x="298.548631" y="131.151993" style="fill: #8dd3c7; stroke: #8dd3c7"/>
     <use xlink:href="#meb42fbdf6d" x="237.878249" y="175.405238" style="fill: #8dd3c7; stroke: #8dd3c7"/>
     <use xlink:href="#meb42fbdf6d" x="279.445032" y="145.320089" style="fill: #8dd3c7; stroke: #8dd3c7"/>
     <use xlink:href="#meb42fbdf6d" x="357.824911" y="88.430806" style="fill: #8dd3c7; stroke: #8dd3c7"/>
     <use xlink:href="#meb42fbdf6d" x="257.724337" y="161.280243" style="fill: #8dd3c7; stroke: #8dd3c7"/>
     <use xlink:href="#meb42fbdf6d" x="318.718668" y="117.289701" style="fill: #8dd3c7; stroke: #8dd3c7"/>
     <use xlink:href="#meb42fbdf6d" x="279.31712" y="146.71872" style="fill: #8dd3c7; stroke: #8dd3c7"/>
     <use xlink:href="#meb42fbdf6d" x="287.168728" y="140.790271" style="fill: #8dd3c7; stroke: #8dd3c7"/>
    </g>
   </g>
   <g id="LineCollection_2">
    <path d="M 316.444193 119.045671 
L 316.444193 118.58814 
" clip-path="url(#pf3468343a8)" style="fill: none; stroke: #feffb3"/>
    <path d="M 303.166258 128.225397 
L 303.166258 127.791887 
" clip-path="url(#pf3468343a8)" style="fill: none; stroke: #feffb3"/>
    <path d="M 287.847357 139.405865 
L 287.847357 138.83918 
" clip-path="url(#pf3468343a8)" style="fill: none; stroke: #feffb3"/>
    <path d="M 317.100392 118.423118 
L 317.100392 117.784535 
" clip-path="url(#pf3468343a8)" style="fill: none; stroke: #feffb3"/>
    <path d="M 251.168297 168.948268 
L 251.168297 167.800398 
" clip-path="url(#pf3468343a8)" style="fill: none; stroke: #feffb3"/>
    <path d="M 329.395059 111.08239 
L 329.395059 110.337848 
" clip-path="url(#pf3468343a8)" style="fill: none; stroke: #feffb3"/>
    <path d="M 406.298964 53.689974 
L 406.298964 52.580371 
" clip-path="url(#pf3468343a8)" style="fill: none; stroke: #feffb3"/>
   </g>
   <g id="line2d_20">
    <defs>
     <path id="m6e79de6683" d="M 2 0 
L -2 -0 
" style="stroke: #feffb3"/>
    </defs>
    <g clip-path="url(#pf3468343a8)">
     <use xlink:href="#m6e79de6683" x="316.444193" y="119.045671" style="fill: #feffb3; stroke: #feffb3"/>
     <use xlink:href="#m6e79de6683" x="303.166258" y="128.225397" style="fill: #feffb3; stroke: #feffb3"/>
     <use xlink:href="#m6e79de6683" x="287.847357" y="139.405865" style="fill: #feffb3; stroke: #feffb3"/>
     <use xlink:href="#m6e79de6683" x="317.100392" y="118.423118" style="fill: #feffb3; stroke: #feffb3"/>
     <use xlink:href="#m6e79de6683" x="251.168297" y="168.948268" style="fill: #feffb3; stroke: #feffb3"/>
     <use xlink:href="#m6e79de6683" x="329.395059" y="111.08239" style="fill: #feffb3; stroke: #feffb3"/>
     <use xlink:href="#m6e79de6683" x="406.298964" y="53.689974" style="fill: #feffb3; stroke: #feffb3"/>
    </g>
   </g>
   <g id="line2d_21">
    <g clip-path="url(#pf3468343a8)">
     <use xlink:href="#m6e79de6683" x="316.444193" y="118.58814" style="fill: #feffb3; stroke: #feffb3"/>
     <use xlink:href="#m6e79de6683" x="303.166258" y="127.791887" style="fill: #feffb3; stroke: #feffb3"/>
     <use xlink:href="#m6e79de6683" x="287.847357" y="138.83918" style="fill: #feffb3; stroke: #feffb3"/>
     <use xlink:href="#m6e79de6683" x="317.100392" y="117.784535" style="fill: #feffb3; stroke: #feffb3"/>
     <use xlink:href="#m6e79de6683" x="251.168297" y="167.800398" style="fill: #feffb3; stroke: #feffb3"/>
     <use xlink:href="#m6e79de6683" x="329.395059" y="110.337848" style="fill: #feffb3; stroke: #feffb3"/>
     <use xlink:href="#m6e79de6683" x="406.298964" y="52.580371" style="fill: #feffb3; stroke: #feffb3"/>
    </g>
   </g>
   <g id="LineCollection_3">
    <path d="M 288.364922 140.410685 
L 288.364922 139.64589 
" clip-path="url(#pf3468343a8)" style="fill: none; stroke: #bfbbd9"/>
    <path d="M 322.705807 115.948143 
L 322.705807 114.694582 
" clip-path="url(#pf3468343a8)" style="fill: none; stroke: #bfbbd9"/>
    <path d="M 346.185362 100.721808 
L 346.185362 98.680608 
" clip-path="url(#pf3468343a8)" style="fill: none; stroke: #bfbbd9"/>
    <path d="M 309.966387 129.960052 
L 309.966387 127.651481 
" clip-path="url(#pf3468343a8)" style="fill: none; stroke: #bfbbd9"/>
    <path d="M 340.516805 103.334954 
L 340.516805 102.010852 
" clip-path="url(#pf3468343a8)" style="fill: none; stroke: #bfbbd9"/>
    <path d="M 406.069426 48.788514 
L 406.069426 47.872881 
" clip-path="url(#pf3468343a8)" style="fill: none; stroke: #bfbbd9"/>
    <path d="M 302.55278 129.562928 
L 302.55278 128.804907 
" clip-path="url(#pf3468343a8)" style="fill: none; stroke: #bfbbd9"/>
    <path d="M 272.642967 152.857787 
L 272.642967 151.754859 
" clip-path="url(#pf3468343a8)" style="fill: none; stroke: #bfbbd9"/>
    <path d="M 296.745082 136.872041 
L 296.745082 135.155847 
" clip-path="url(#pf3468343a8)" style="fill: none; stroke: #bfbbd9"/>
    <path d="M 265.312496 161.871188 
L 265.312496 160.643244 
" clip-path="url(#pf3468343a8)" style="fill: none; stroke: #bfbbd9"/>
   </g>
   <g id="line2d_22">
    <defs>
     <path id="mf3a608b670" d="M 2 0 
L -2 -0 
" style="stroke: #bfbbd9"/>
    </defs>
    <g clip-path="url(#pf3468343a8)">
     <use xlink:href="#mf3a608b670" x="288.364922" y="140.410685" style="fill: #bfbbd9; stroke: #bfbbd9"/>
     <use xlink:href="#mf3a608b670" x="322.705807" y="115.948143" style="fill: #bfbbd9; stroke: #bfbbd9"/>
     <use xlink:href="#mf3a608b670" x="346.185362" y="100.721808" style="fill: #bfbbd9; stroke: #bfbbd9"/>
     <use xlink:href="#mf3a608b670" x="309.966387" y="129.960052" style="fill: #bfbbd9; stroke: #bfbbd9"/>
     <use xlink:href="#mf3a608b670" x="340.516805" y="103.334954" style="fill: #bfbbd9; stroke: #bfbbd9"/>
     <use xlink:href="#mf3a608b670" x="406.069426" y="48.788514" style="fill: #bfbbd9; stroke: #bfbbd9"/>
     <use xlink:href="#mf3a608b670" x="302.55278" y="129.562928" style="fill: #bfbbd9; stroke: #bfbbd9"/>
     <use xlink:href="#mf3a608b670" x="272.642967" y="152.857787" style="fill: #bfbbd9; stroke: #bfbbd9"/>
     <use xlink:href="#mf3a608b670" x="296.745082" y="136.872041" style="fill: #bfbbd9; stroke: #bfbbd9"/>
     <use xlink:href="#mf3a608b670" x="265.312496" y="161.871188" style="fill: #bfbbd9; stroke: #bfbbd9"/>
    </g>
   </g>
   <g id="line2d_23">
    <g clip-path="url(#pf3468343a8)">
     <use xlink:href="#mf3a608b670" x="288.364922" y="139.64589" style="fill: #bfbbd9; stroke: #bfbbd9"/>
     <use xlink:href="#mf3a608b670" x="322.705807" y="114.694582" style="fill: #bfbbd9; stroke: #bfbbd9"/>
     <use xlink:href="#mf3a608b670" x="346.185362" y="98.680608" style="fill: #bfbbd9; stroke: #bfbbd9"/>
     <use xlink:href="#mf3a608b670" x="309.966387" y="127.651481" style="fill: #bfbbd9; stroke: #bfbbd9"/>
     <use xlink:href="#mf3a608b670" x="340.516805" y="102.010852" style="fill: #bfbbd9; stroke: #bfbbd9"/>
     <use xlink:href="#mf3a608b670" x="406.069426" y="47.872881" style="fill: #bfbbd9; stroke: #bfbbd9"/>
     <use xlink:href="#mf3a608b670" x="302.55278" y="128.804907" style="fill: #bfbbd9; stroke: #bfbbd9"/>
     <use xlink:href="#mf3a608b670" x="272.642967" y="151.754859" style="fill: #bfbbd9; stroke: #bfbbd9"/>
     <use xlink:href="#mf3a608b670" x="296.745082" y="135.155847" style="fill: #bfbbd9; stroke: #bfbbd9"/>
     <use xlink:href="#mf3a608b670" x="265.312496" y="160.643244" style="fill: #bfbbd9; stroke: #bfbbd9"/>
    </g>
   </g>
   <g id="line2d_24">
    <path d="M 57.6 290.415362 
L 78.333694 278.192655 
L 99.067387 265.711927 
L 119.801081 252.973181 
L 140.534775 239.976414 
L 161.625946 226.490835 
L 182.717117 212.738262 
L 203.808288 198.718695 
L 224.899459 184.432135 
L 245.990631 169.878582 
L 267.081802 155.058035 
L 288.53045 139.712472 
L 309.979099 124.090789 
L 331.427748 108.192984 
L 352.876396 92.019059 
L 374.325045 75.569013 
L 396.131171 58.561737 
L 414.72 43.838387 
L 414.72 43.838387 
" clip-path="url(#pf3468343a8)" style="fill: none; stroke: #fa8174; stroke-linecap: square"/>
   </g>
   <g id="line2d_25">
    <defs>
     <path id="m813f38c2b6" d="M 0 1 
C 0.265203 1 0.51958 0.894634 0.707107 0.707107 
C 0.894634 0.51958 1 0.265203 1 0 
C 1 -0.265203 0.894634 -0.51958 0.707107 -0.707107 
C 0.51958 -0.894634 0.265203 -1 0 -1 
C -0.265203 -1 -0.51958 -0.894634 -0.707107 -0.707107 
C -0.894634 -0.51958 -1 -0.265203 -1 0 
C -1 0.265203 -0.894634 0.51958 -0.707107 0.707107 
C -0.51958 0.894634 -0.265203 1 0 1 
z
" style="stroke: #8dd3c7"/>
    </defs>
    <g clip-path="url(#pf3468343a8)">
     <use xlink:href="#m813f38c2b6" x="338.10125" y="103.012993" style="fill: #8dd3c7; stroke: #8dd3c7"/>
     <use xlink:href="#m813f38c2b6" x="297.701838" y="133.606632" style="fill: #8dd3c7; stroke: #8dd3c7"/>
     <use xlink:href="#m813f38c2b6" x="289.73234" y="139.098563" style="fill: #8dd3c7; stroke: #8dd3c7"/>
     <use xlink:href="#m813f38c2b6" x="280.883308" y="145.127184" style="fill: #8dd3c7; stroke: #8dd3c7"/>
     <use xlink:href="#m813f38c2b6" x="343.369941" y="99.370837" style="fill: #8dd3c7; stroke: #8dd3c7"/>
     <use xlink:href="#m813f38c2b6" x="272.069871" y="151.118489" style="fill: #8dd3c7; stroke: #8dd3c7"/>
     <use xlink:href="#m813f38c2b6" x="329.34439" y="109.332426" style="fill: #8dd3c7; stroke: #8dd3c7"/>
     <use xlink:href="#m813f38c2b6" x="261.565817" y="158.668781" style="fill: #8dd3c7; stroke: #8dd3c7"/>
     <use xlink:href="#m813f38c2b6" x="250.492853" y="166.493607" style="fill: #8dd3c7; stroke: #8dd3c7"/>
     <use xlink:href="#m813f38c2b6" x="298.548631" y="131.32144" style="fill: #8dd3c7; stroke: #8dd3c7"/>
     <use xlink:href="#m813f38c2b6" x="237.878249" y="175.647866" style="fill: #8dd3c7; stroke: #8dd3c7"/>
     <use xlink:href="#m813f38c2b6" x="279.445032" y="145.538913" style="fill: #8dd3c7; stroke: #8dd3c7"/>
     <use xlink:href="#m813f38c2b6" x="357.824911" y="88.615058" style="fill: #8dd3c7; stroke: #8dd3c7"/>
     <use xlink:href="#m813f38c2b6" x="257.724337" y="161.557114" style="fill: #8dd3c7; stroke: #8dd3c7"/>
     <use xlink:href="#m813f38c2b6" x="318.718668" y="117.519555" style="fill: #8dd3c7; stroke: #8dd3c7"/>
     <use xlink:href="#m813f38c2b6" x="279.31712" y="147.042466" style="fill: #8dd3c7; stroke: #8dd3c7"/>
     <use xlink:href="#m813f38c2b6" x="287.168728" y="141.016683" style="fill: #8dd3c7; stroke: #8dd3c7"/>
    </g>
   </g>
   <g id="line2d_26">
    <defs>
     <path id="mb6bb3e3214" d="M 0 1 
C 0.265203 1 0.51958 0.894634 0.707107 0.707107 
C 0.894634 0.51958 1 0.265203 1 0 
C 1 -0.265203 0.894634 -0.51958 0.707107 -0.707107 
C 0.51958 -0.894634 0.265203 -1 0 -1 
C -0.265203 -1 -0.51958 -0.894634 -0.707107 -0.707107 
C -0.894634 -0.51958 -1 -0.265203 -1 0 
C -1 0.265203 -0.894634 0.51958 -0.707107 0.707107 
C -0.51958 0.894634 -0.265203 1 0 1 
z
" style="stroke: #feffb3"/>
    </defs>
    <g clip-path="url(#pf3468343a8)">
     <use xlink:href="#mb6bb3e3214" x="316.444193" y="118.816906" style="fill: #feffb3; stroke: #feffb3"/>
     <use xlink:href="#mb6bb3e3214" x="303.166258" y="128.008642" style="fill: #feffb3; stroke: #feffb3"/>
     <use xlink:href="#mb6bb3e3214" x="287.847357" y="139.122522" style="fill: #feffb3; stroke: #feffb3"/>
     <use xlink:href="#mb6bb3e3214" x="317.100392" y="118.103826" style="fill: #feffb3; stroke: #feffb3"/>
     <use xlink:href="#mb6bb3e3214" x="251.168297" y="168.374333" style="fill: #feffb3; stroke: #feffb3"/>
     <use xlink:href="#mb6bb3e3214" x="329.395059" y="110.710119" style="fill: #feffb3; stroke: #feffb3"/>
     <use xlink:href="#mb6bb3e3214" x="406.298964" y="53.135172" style="fill: #feffb3; stroke: #feffb3"/>
    </g>
   </g>
   <g id="line2d_27">
    <defs>
     <path id="mf4a5fb5cd7" d="M 0 1 
C 0.265203 1 0.51958 0.894634 0.707107 0.707107 
C 0.894634 0.51958 1 0.265203 1 0 
C 1 -0.265203 0.894634 -0.51958 0.707107 -0.707107 
C 0.51958 -0.894634 0.265203 -1 0 -1 
C -0.265203 -1 -0.51958 -0.894634 -0.707107 -0.707107 
C -0.894634 -0.51958 -1 -0.265203 -1 0 
C -1 0.265203 -0.894634 0.51958 -0.707107 0.707107 
C -0.51958 0.894634 -0.265203 1 0 1 
z
" style="stroke: #bfbbd9"/>
    </defs>
    <g clip-path="url(#pf3468343a8)">
     <use xlink:href="#mf4a5fb5cd7" x="288.364922" y="140.028287" style="fill: #bfbbd9; stroke: #bfbbd9"/>
     <use xlink:href="#mf4a5fb5cd7" x="322.705807" y="115.321363" style="fill: #bfbbd9; stroke: #bfbbd9"/>
     <use xlink:href="#mf4a5fb5cd7" x="346.185362" y="99.701208" style="fill: #bfbbd9; stroke: #bfbbd9"/>
     <use xlink:href="#mf4a5fb5cd7" x="309.966387" y="128.805767" style="fill: #bfbbd9; stroke: #bfbbd9"/>
     <use xlink:href="#mf4a5fb5cd7" x="340.516805" y="102.672903" style="fill: #bfbbd9; stroke: #bfbbd9"/>
     <use xlink:href="#mf4a5fb5cd7" x="406.069426" y="48.330697" style="fill: #bfbbd9; stroke: #bfbbd9"/>
     <use xlink:href="#mf4a5fb5cd7" x="302.55278" y="129.183918" style="fill: #bfbbd9; stroke: #bfbbd9"/>
     <use xlink:href="#mf4a5fb5cd7" x="272.642967" y="152.306323" style="fill: #bfbbd9; stroke: #bfbbd9"/>
     <use xlink:href="#mf4a5fb5cd7" x="296.745082" y="136.013944" style="fill: #bfbbd9; stroke: #bfbbd9"/>
     <use xlink:href="#mf4a5fb5cd7" x="265.312496" y="161.257216" style="fill: #bfbbd9; stroke: #bfbbd9"/>
    </g>
   </g>
   <g id="patch_3">
    <path d="M 57.6 307.584 
L 57.6 41.472 
" style="fill: none; stroke: #ffffff; stroke-width: 0.8; stroke-linejoin: miter; stroke-linecap: square"/>
   </g>
   <g id="patch_4">
    <path d="M 414.72 307.584 
L 414.72 41.472 
" style="fill: none; stroke: #ffffff; stroke-width: 0.8; stroke-linejoin: miter; stroke-linecap: square"/>
   </g>
   <g id="patch_5">
    <path d="M 57.6 307.584 
L 414.72 307.584 
" style="fill: none; stroke: #ffffff; stroke-width: 0.8; stroke-linejoin: miter; stroke-linecap: square"/>
   </g>
   <g id="patch_6">
    <path d="M 57.6 41.472 
L 414.72 41.472 
" style="fill: none; stroke: #ffffff; stroke-width: 0.8; stroke-linejoin: miter; stroke-linecap: square"/>
   </g>
   <g id="text_20">
    <!-- $\gamma_*=0.852(17)$, $\omega=-0.385(15)$ -->
    <g style="fill: #ffffff" transform="translate(155.452164 35.472)scale(0.12 -0.12)">
     <defs>
      <path id="CMSY10-3" d="M 1760 2719 
C 1766 2808 1766 2962 1600 2962 
C 1498 2962 1414 2879 1434 2795 
L 1434 2712 
L 1523 1720 
L 704 2316 
C 646 2348 634 2360 589 2360 
C 499 2360 416 2271 416 2181 
C 416 2079 480 2053 544 2021 
L 1453 1586 
L 570 1158 
C 467 1107 416 1081 416 985 
C 416 889 499 806 589 806 
C 634 806 646 806 806 928 
L 1523 1446 
L 1427 371 
C 1427 236 1542 204 1594 204 
C 1670 204 1766 248 1766 371 
L 1670 1446 
L 2490 851 
C 2547 819 2560 806 2605 806 
C 2694 806 2778 896 2778 985 
C 2778 1081 2720 1113 2643 1152 
C 2259 1343 2246 1343 1741 1580 
L 2624 2008 
C 2726 2060 2778 2085 2778 2181 
C 2778 2277 2694 2360 2605 2360 
C 2560 2360 2547 2360 2387 2239 
L 1670 1720 
L 1760 2719 
z
" transform="scale(0.015625)"/>
      <path id="CMR17-3d" d="M 4115 2017 
C 4211 2017 4307 2017 4307 2125 
C 4307 2240 4198 2240 4090 2240 
L 512 2240 
C 403 2240 294 2240 294 2125 
C 294 2017 390 2017 486 2017 
L 4115 2017 
z
M 4090 896 
C 4198 896 4307 896 4307 1011 
C 4307 1119 4211 1119 4115 1119 
L 486 1119 
C 390 1119 294 1119 294 1011 
C 294 896 403 896 512 896 
L 4090 896 
z
" transform="scale(0.015625)"/>
      <path id="CMR17-38" d="M 1741 2264 
C 2144 2467 2554 2773 2554 3263 
C 2554 3841 1990 4179 1472 4179 
C 890 4179 378 3759 378 3180 
C 378 3021 416 2747 666 2505 
C 730 2442 998 2251 1171 2130 
C 883 1983 211 1634 211 934 
C 211 279 838 -128 1459 -128 
C 2144 -128 2720 362 2720 1010 
C 2720 1590 2330 1857 2074 2029 
L 1741 2264 
z
M 902 2822 
C 851 2854 595 3051 595 3351 
C 595 3739 998 4032 1459 4032 
C 1965 4032 2336 3676 2336 3262 
C 2336 2669 1670 2331 1638 2331 
C 1632 2331 1626 2331 1574 2370 
L 902 2822 
z
M 2080 1519 
C 2176 1449 2483 1240 2483 851 
C 2483 381 2010 25 1472 25 
C 890 25 448 438 448 940 
C 448 1443 838 1862 1280 2060 
L 2080 1519 
z
" transform="scale(0.015625)"/>
      <path id="CMR17-2c" d="M 1011 102 
C 1024 45 1024 25 1024 -77 
C 1024 -463 896 -817 627 -1139 
C 595 -1170 595 -1183 595 -1197 
C 595 -1222 621 -1248 646 -1248 
C 685 -1248 1126 -799 1126 -87 
C 1126 124 1101 522 800 522 
C 659 522 538 427 538 261 
C 538 96 659 0 800 0 
C 877 0 960 32 1011 102 
z
" transform="scale(0.015625)"/>
      <path id="CMSY10-0" d="M 4218 1472 
C 4326 1472 4442 1472 4442 1600 
C 4442 1728 4326 1728 4218 1728 
L 755 1728 
C 646 1728 531 1728 531 1600 
C 531 1472 646 1472 755 1472 
L 4218 1472 
z
" transform="scale(0.015625)"/>
     </defs>
     <use xlink:href="#CMMI12-d" transform="scale(0.996264)"/>
     <use xlink:href="#CMSY10-3" transform="translate(50.599133 -14.943915)scale(0.697382)"/>
     <use xlink:href="#CMR17-3d" transform="translate(113.640483 0)scale(0.996264)"/>
     <use xlink:href="#CMR17-30" transform="translate(213.02928 0)scale(0.996264)"/>
     <use xlink:href="#CMMI12-3a" transform="translate(258.719758 0)scale(0.996264)"/>
     <use xlink:href="#CMR17-38" transform="translate(285.816935 0)scale(0.996264)"/>
     <use xlink:href="#CMR17-35" transform="translate(331.507412 0)scale(0.996264)"/>
     <use xlink:href="#CMR17-32" transform="translate(377.197889 0)scale(0.996264)"/>
     <use xlink:href="#CMR17-28" transform="translate(422.888366 0)scale(0.996264)"/>
     <use xlink:href="#CMR17-31" transform="translate(458.169134 0)scale(0.996264)"/>
     <use xlink:href="#CMR17-37" transform="translate(503.859611 0)scale(0.996264)"/>
     <use xlink:href="#CMR17-29" transform="translate(549.550088 0)scale(0.996264)"/>
     <use xlink:href="#CMR17-2c" transform="translate(584.830856 0)scale(0.996264)"/>
     <use xlink:href="#CMMI12-21" transform="translate(639.777881 0)scale(0.996264)"/>
     <use xlink:href="#CMR17-3d" transform="translate(731.770235 0)scale(0.996264)"/>
     <use xlink:href="#CMSY10-0" transform="translate(831.159033 0)scale(0.996264)"/>
     <use xlink:href="#CMR17-30" transform="translate(908.6465 0)scale(0.996264)"/>
     <use xlink:href="#CMMI12-3a" transform="translate(954.336977 0)scale(0.996264)"/>
     <use xlink:href="#CMR17-33" transform="translate(981.434154 0)scale(0.996264)"/>
     <use xlink:href="#CMR17-38" transform="translate(1027.124632 0)scale(0.996264)"/>
     <use xlink:href="#CMR17-35" transform="translate(1072.815109 0)scale(0.996264)"/>
     <use xlink:href="#CMR17-28" transform="translate(1118.505586 0)scale(0.996264)"/>
     <use xlink:href="#CMR17-31" transform="translate(1153.786354 0)scale(0.996264)"/>
     <use xlink:href="#CMR17-35" transform="translate(1199.476831 0)scale(0.996264)"/>
     <use xlink:href="#CMR17-29" transform="translate(1245.167308 0)scale(0.996264)"/>
    </g>
   </g>
   <g id="legend_1">
    <g id="line2d_28">
     <path d="M 66.6 53.974655 
L 76.6 53.974655 
L 86.6 53.974655 
" style="fill: none; stroke: #fa8174; stroke-linecap: square"/>
    </g>
    <g id="text_21">
     <!-- $1.4+2.2x+0.055x^2$ -->
     <g style="fill: #ffffff" transform="translate(94.6 57.474655)scale(0.1 -0.1)">
      <defs>
       <path id="CMMI12-78" d="M 3034 2606 
C 2829 2567 2752 2414 2752 2293 
C 2752 2139 2874 2088 2963 2088 
C 3155 2088 3290 2254 3290 2427 
C 3290 2695 2982 2816 2714 2816 
C 2323 2816 2106 2433 2048 2312 
C 1901 2816 1504 2816 1389 2816 
C 736 2816 390 1980 390 1839 
C 390 1814 416 1782 461 1782 
C 512 1782 525 1820 538 1846 
C 755 2555 1184 2689 1370 2689 
C 1658 2689 1715 2420 1715 2267 
C 1715 2127 1677 1980 1600 1673 
L 1382 798 
C 1286 415 1101 64 762 64 
C 730 64 570 64 435 147 
C 666 192 717 383 717 460 
C 717 588 621 664 499 664 
C 346 664 179 530 179 326 
C 179 57 480 -64 755 -64 
C 1062 -64 1280 179 1414 441 
C 1517 64 1837 -64 2074 -64 
C 2726 -64 3072 773 3072 913 
C 3072 945 3046 971 3008 971 
C 2950 971 2944 939 2925 888 
C 2752 326 2381 64 2093 64 
C 1869 64 1747 230 1747 492 
C 1747 632 1773 734 1875 1156 
L 2099 2024 
C 2195 2408 2413 2689 2707 2689 
C 2720 2689 2899 2689 3034 2606 
z
" transform="scale(0.015625)"/>
      </defs>
      <use xlink:href="#CMR17-31" transform="scale(0.996264)"/>
      <use xlink:href="#CMMI12-3a" transform="translate(45.690477 0)scale(0.996264)"/>
      <use xlink:href="#CMR17-34" transform="translate(72.787654 0)scale(0.996264)"/>
      <use xlink:href="#CMR17-2b" transform="translate(140.617338 0)scale(0.996264)"/>
      <use xlink:href="#CMR17-32" transform="translate(234.471334 0)scale(0.996264)"/>
      <use xlink:href="#CMMI12-3a" transform="translate(280.161811 0)scale(0.996264)"/>
      <use xlink:href="#CMR17-32" transform="translate(307.258988 0)scale(0.996264)"/>
      <use xlink:href="#CMMI12-78" transform="translate(352.949465 0)scale(0.996264)"/>
      <use xlink:href="#CMR17-2b" transform="translate(430.522732 0)scale(0.996264)"/>
      <use xlink:href="#CMR17-30" transform="translate(524.376727 0)scale(0.996264)"/>
      <use xlink:href="#CMMI12-3a" transform="translate(570.067204 0)scale(0.996264)"/>
      <use xlink:href="#CMR17-30" transform="translate(597.164381 0)scale(0.996264)"/>
      <use xlink:href="#CMR17-35" transform="translate(642.854858 0)scale(0.996264)"/>
      <use xlink:href="#CMR17-35" transform="translate(688.545335 0)scale(0.996264)"/>
      <use xlink:href="#CMMI12-78" transform="translate(734.235812 0)scale(0.996264)"/>
      <use xlink:href="#CMR17-32" transform="translate(789.669872 36.153639)scale(0.697382)"/>
     </g>
    </g>
    <g id="LineCollection_4">
     <path d="M 76.6 72.911834 
L 76.6 62.911834 
" style="fill: none; stroke: #8dd3c7"/>
    </g>
    <g id="line2d_29">
     <g>
      <use xlink:href="#meb42fbdf6d" x="76.6" y="72.911834" style="fill: #8dd3c7; stroke: #8dd3c7"/>
     </g>
    </g>
    <g id="line2d_30">
     <g>
      <use xlink:href="#meb42fbdf6d" x="76.6" y="62.911834" style="fill: #8dd3c7; stroke: #8dd3c7"/>
     </g>
    </g>
    <g id="line2d_31"/>
    <g id="line2d_32">
     <g>
      <use xlink:href="#m813f38c2b6" x="76.6" y="67.911834" style="fill: #8dd3c7; stroke: #8dd3c7"/>
     </g>
    </g>
    <g id="text_22">
     <!-- $\beta=2.2$ -->
     <g style="fill: #ffffff" transform="translate(94.6 71.411834)scale(0.1 -0.1)">
      <defs>
       <path id="CMMI12-c" d="M 3622 3701 
C 3622 4081 3296 4480 2714 4480 
C 1888 4480 1363 3477 1197 2816 
L 186 -1172 
C 173 -1223 211 -1236 243 -1236 
C 288 -1236 320 -1230 326 -1198 
L 774 586 
C 838 229 1190 -64 1568 -64 
C 2483 -64 3347 650 3347 1599 
C 3347 1841 3290 2083 3155 2287 
C 3078 2408 2982 2497 2880 2574 
C 3341 2815 3622 3200 3622 3701 
z
M 2509 2580 
C 2406 2542 2304 2529 2182 2529 
C 2093 2529 2010 2523 1894 2561 
C 1958 2606 2054 2618 2189 2618 
C 2304 2618 2419 2606 2509 2580 
z
M 3290 3758 
C 3290 3410 3117 2903 2701 2669 
C 2579 2718 2413 2752 2272 2752 
C 2138 2752 1754 2752 1754 2555 
C 1754 2389 2106 2389 2214 2389 
C 2381 2389 2528 2432 2682 2484 
C 2886 2318 2976 2101 2976 1783 
C 2976 1413 2874 1115 2752 841 
C 2541 369 2042 64 1600 64 
C 1133 64 890 432 890 864 
C 890 922 890 1005 915 1099 
L 1331 2771 
C 1542 3603 2080 4353 2701 4353 
C 3162 4353 3290 4036 3290 3758 
z
" transform="scale(0.015625)"/>
      </defs>
      <use xlink:href="#CMMI12-c" transform="scale(0.996264)"/>
      <use xlink:href="#CMR17-3d" transform="translate(88.268024 0)scale(0.996264)"/>
      <use xlink:href="#CMR17-32" transform="translate(187.656822 0)scale(0.996264)"/>
      <use xlink:href="#CMMI12-3a" transform="translate(233.347299 0)scale(0.996264)"/>
      <use xlink:href="#CMR17-32" transform="translate(260.444476 0)scale(0.996264)"/>
     </g>
    </g>
    <g id="LineCollection_5">
     <path d="M 76.6 86.849012 
L 76.6 76.849012 
" style="fill: none; stroke: #feffb3"/>
    </g>
    <g id="line2d_33">
     <g>
      <use xlink:href="#m6e79de6683" x="76.6" y="86.849012" style="fill: #feffb3; stroke: #feffb3"/>
     </g>
    </g>
    <g id="line2d_34">
     <g>
      <use xlink:href="#m6e79de6683" x="76.6" y="76.849012" style="fill: #feffb3; stroke: #feffb3"/>
     </g>
    </g>
    <g id="line2d_35"/>
    <g id="line2d_36">
     <g>
      <use xlink:href="#mb6bb3e3214" x="76.6" y="81.849012" style="fill: #feffb3; stroke: #feffb3"/>
     </g>
    </g>
    <g id="text_23">
     <!-- $\beta=2.3$ -->
     <g style="fill: #ffffff" transform="translate(94.6 85.349012)scale(0.1 -0.1)">
      <use xlink:href="#CMMI12-c" transform="scale(0.996264)"/>
      <use xlink:href="#CMR17-3d" transform="translate(88.268024 0)scale(0.996264)"/>
      <use xlink:href="#CMR17-32" transform="translate(187.656822 0)scale(0.996264)"/>
      <use xlink:href="#CMMI12-3a" transform="translate(233.347299 0)scale(0.996264)"/>
      <use xlink:href="#CMR17-33" transform="translate(260.444476 0)scale(0.996264)"/>
     </g>
    </g>
    <g id="LineCollection_6">
     <path d="M 76.6 100.78619 
L 76.6 90.78619 
" style="fill: none; stroke: #bfbbd9"/>
    </g>
    <g id="line2d_37">
     <g>
      <use xlink:href="#mf3a608b670" x="76.6" y="100.78619" style="fill: #bfbbd9; stroke: #bfbbd9"/>
     </g>
    </g>
    <g id="line2d_38">
     <g>
      <use xlink:href="#mf3a608b670" x="76.6" y="90.78619" style="fill: #bfbbd9; stroke: #bfbbd9"/>
     </g>
    </g>
    <g id="line2d_39"/>
    <g id="line2d_40">
     <g>
      <use xlink:href="#mf4a5fb5cd7" x="76.6" y="95.78619" style="fill: #bfbbd9; stroke: #bfbbd9"/>
     </g>
    </g>
    <g id="text_24">
     <!-- $\beta=2.4$ -->
     <g style="fill: #ffffff" transform="translate(94.6 99.28619)scale(0.1 -0.1)">
      <use xlink:href="#CMMI12-c" transform="scale(0.996264)"/>
      <use xlink:href="#CMR17-3d" transform="translate(88.268024 0)scale(0.996264)"/>
      <use xlink:href="#CMR17-32" transform="translate(187.656822 0)scale(0.996264)"/>
      <use xlink:href="#CMMI12-3a" transform="translate(233.347299 0)scale(0.996264)"/>
      <use xlink:href="#CMR17-34" transform="translate(260.444476 0)scale(0.996264)"/>
     </g>
    </g>
   </g>
  </g>
 </g>
 <defs>
  <clipPath id="pf3468343a8">
   <rect x="57.6" y="41.472" width="357.12" height="266.112"/>
  </clipPath>
 </defs>
</svg>
