<?xml version="1.0" encoding="utf-8" standalone="no"?>
<!DOCTYPE svg PUBLIC "-//W3C//DTD SVG 1.1//EN"
  "http://www.w3.org/Graphics/SVG/1.1/DTD/svg11.dtd">
<svg xmlns:xlink="http://www.w3.org/1999/xlink" width="1080pt" height="432pt" viewBox="0 0 1080 432" xmlns="http://www.w3.org/2000/svg" version="1.1">
 <metadata>
  <rdf:RDF xmlns:dc="http://purl.org/dc/elements/1.1/" xmlns:cc="http://creativecommons.org/ns#" xmlns:rdf="http://www.w3.org/1999/02/22-rdf-syntax-ns#">
   <cc:Work>
    <dc:type rdf:resource="http://purl.org/dc/dcmitype/StillImage"/>
    <dc:date>2022-08-07T23:39:59.002295</dc:date>
    <dc:format>image/svg+xml</dc:format>
    <dc:creator>
     <cc:Agent>
      <dc:title>Matplotlib v3.5.1, https://matplotlib.org/</dc:title>
     </cc:Agent>
    </dc:creator>
   </cc:Work>
  </rdf:RDF>
 </metadata>
 <defs>
  <style type="text/css">*{stroke-linejoin: round; stroke-linecap: butt}</style>
 </defs>
 <g id="figure_1">
  <g id="patch_1">
   <path d="M 0 432 
L 1080 432 
L 1080 0 
L 0 0 
L 0 432 
z
" style="fill: none"/>
  </g>
  <g id="axes_1">
   <g id="patch_2">
    <path d="M 61.810625 341.28 
L 258.653346 341.28 
L 258.653346 47.9825 
L 61.810625 47.9825 
L 61.810625 341.28 
z
" style="fill: none"/>
   </g>
   <g id="matplotlib.axis_1"/>
   <g id="matplotlib.axis_2">
    <g id="text_1">
     <!-- $\mu \frac{\mathrm{d}g}{\mathrm{d}\mu}$ -->
     <g style="fill: #ffffff" transform="translate(24.850625 34.0625)scale(0.24 -0.24)">
      <defs>
       <path id="Cmmi10-b9" d="M 178 -1203 
Q 178 -1166 184 -1153 
L 1125 2625 
Q 1153 2716 1226 2772 
Q 1300 2828 1394 2828 
Q 1475 2828 1531 2779 
Q 1588 2731 1588 2650 
Q 1588 2631 1586 2620 
Q 1584 2609 1581 2597 
L 1203 1100 
Q 1141 834 1141 641 
Q 1141 403 1253 250 
Q 1366 97 1594 97 
Q 2059 97 2413 678 
Q 2416 684 2417 687 
Q 2419 691 2419 697 
L 2881 2553 
Q 2903 2638 2981 2698 
Q 3059 2759 3150 2759 
Q 3225 2759 3283 2709 
Q 3341 2659 3341 2578 
Q 3341 2541 3334 2528 
L 2875 684 
Q 2828 503 2828 372 
Q 2828 97 3016 97 
Q 3216 97 3317 344 
Q 3419 591 3494 941 
Q 3506 978 3547 978 
L 3622 978 
Q 3647 978 3664 958 
Q 3681 938 3681 916 
Q 3569 469 3436 198 
Q 3303 -72 3003 -72 
Q 2791 -72 2627 50 
Q 2463 172 2413 378 
Q 2253 178 2039 53 
Q 1825 -72 1588 -72 
Q 1188 -72 959 116 
L 634 -1178 
Q 616 -1269 541 -1325 
Q 466 -1381 372 -1381 
Q 294 -1381 236 -1332 
Q 178 -1284 178 -1203 
z
" transform="scale(0.015625)"/>
       <path id="Cmr10-64" d="M 1563 -72 
Q 1184 -72 871 133 
Q 559 338 386 672 
Q 213 1006 213 1381 
Q 213 1769 402 2101 
Q 591 2434 916 2631 
Q 1241 2828 1631 2828 
Q 1866 2828 2075 2729 
Q 2284 2631 2438 2456 
L 2438 3788 
Q 2438 3959 2386 4036 
Q 2334 4113 2239 4130 
Q 2144 4147 1941 4147 
L 1941 4372 
L 2888 4441 
L 2888 581 
Q 2888 413 2939 336 
Q 2991 259 3086 242 
Q 3181 225 3384 225 
L 3384 0 
L 2419 -72 
L 2419 331 
Q 2253 141 2025 34 
Q 1797 -72 1563 -72 
z
M 909 556 
Q 1019 347 1201 222 
Q 1384 97 1600 97 
Q 1866 97 2087 250 
Q 2309 403 2419 647 
L 2419 2181 
Q 2344 2322 2230 2433 
Q 2116 2544 1973 2603 
Q 1831 2663 1672 2663 
Q 1338 2663 1134 2473 
Q 931 2284 850 1990 
Q 769 1697 769 1375 
Q 769 1119 795 928 
Q 822 738 909 556 
z
" transform="scale(0.015625)"/>
       <path id="Cmmi10-67" d="M 91 -916 
Q 91 -759 198 -642 
Q 306 -525 459 -525 
Q 563 -525 633 -589 
Q 703 -653 703 -756 
Q 703 -872 637 -964 
Q 572 -1056 469 -1094 
Q 641 -1147 1006 -1147 
Q 1300 -1147 1544 -920 
Q 1788 -694 1863 -397 
L 2047 353 
Q 1700 0 1325 0 
Q 1050 0 854 140 
Q 659 281 556 515 
Q 453 750 453 1013 
Q 453 1306 573 1628 
Q 694 1950 911 2225 
Q 1128 2500 1409 2664 
Q 1691 2828 2003 2828 
Q 2191 2828 2341 2725 
Q 2491 2622 2578 2450 
Q 2641 2700 2853 2700 
Q 2934 2700 2990 2651 
Q 3047 2603 3047 2522 
Q 3047 2503 3045 2493 
Q 3044 2484 3041 2472 
L 2309 -434 
Q 2259 -634 2125 -800 
Q 1991 -966 1809 -1077 
Q 1628 -1188 1412 -1250 
Q 1197 -1313 997 -1313 
Q 631 -1313 361 -1242 
Q 91 -1172 91 -916 
z
M 1338 166 
Q 1747 166 2144 728 
L 2497 2125 
Q 2453 2347 2322 2505 
Q 2191 2663 1991 2663 
Q 1778 2663 1589 2489 
Q 1400 2316 1275 2075 
Q 1156 1844 1045 1411 
Q 934 978 934 728 
Q 934 509 1034 337 
Q 1134 166 1338 166 
z
" transform="scale(0.015625)"/>
      </defs>
      <use xlink:href="#Cmmi10-b9" transform="translate(0 0.565625)"/>
      <use xlink:href="#Cmr10-64" transform="translate(64.205078 52.426563)scale(0.7)"/>
      <use xlink:href="#Cmmi10-67" transform="translate(103.067383 52.426563)scale(0.7)"/>
      <use xlink:href="#Cmr10-64" transform="translate(60.205078 -41.757812)scale(0.7)"/>
      <use xlink:href="#Cmmi10-b9" transform="translate(99.067383 -41.757812)scale(0.7)"/>
      <path d="M 60.205078 13.065625 
L 60.205078 19.315625 
L 141.210938 19.315625 
L 141.210938 13.065625 
L 60.205078 13.065625 
z
"/>
     </g>
    </g>
   </g>
   <g id="line2d_1">
    <path d="M 71.184088 194.63125 
L 258.653346 194.63125 
" clip-path="url(#p60586b5a0d)" style="fill: none; stroke: #ffffff; stroke-width: 2; stroke-linecap: square"/>
   </g>
   <g id="line2d_2">
    <path d="M 71.184088 341.28 
L 71.184088 47.9825 
" clip-path="url(#p60586b5a0d)" style="fill: none; stroke: #ffffff; stroke-width: 2; stroke-linecap: square"/>
   </g>
   <g id="line2d_3">
    <path d="M 71.184088 194.63125 
L 76.438482 194.746453 
L 81.692875 195.092062 
L 86.947269 195.668076 
L 92.201662 196.474497 
L 97.456056 197.511323 
L 102.71045 198.778555 
L 107.964843 200.276193 
L 113.219237 202.004236 
L 118.473631 203.962686 
L 123.915681 206.233976 
L 129.357732 208.752423 
L 134.799782 211.518028 
L 140.241833 214.530789 
L 145.87154 217.907528 
L 151.501248 221.548763 
L 157.130955 225.454494 
L 162.948319 229.768285 
L 168.765684 234.364499 
L 174.583048 239.243136 
L 180.58807 244.575385 
L 186.593091 250.208573 
L 192.598112 256.142698 
L 198.79079 262.577456 
L 204.983469 269.332256 
L 211.363804 276.626481 
L 217.744139 284.260437 
L 224.312131 292.473787 
L 230.880123 301.047147 
L 237.635772 310.241044 
L 244.391421 319.815817 
L 251.14707 329.771464 
L 258.090376 340.400549 
L 258.653346 341.28 
L 258.653346 341.28 
" clip-path="url(#p60586b5a0d)" style="fill: none; stroke: #8dd3c7; stroke-width: 4; stroke-linecap: square"/>
   </g>
   <g id="line2d_4">
    <defs>
     <path id="mee999975f7" d="M 0 7.5 
C 1.989023 7.5 3.896849 6.709753 5.303301 5.303301 
C 6.709753 3.896849 7.5 1.989023 7.5 0 
C 7.5 -1.989023 6.709753 -3.896849 5.303301 -5.303301 
C 3.896849 -6.709753 1.989023 -7.5 0 -7.5 
C -1.989023 -7.5 -3.896849 -6.709753 -5.303301 -5.303301 
C -6.709753 -3.896849 -7.5 -1.989023 -7.5 0 
C -7.5 1.989023 -6.709753 3.896849 -5.303301 5.303301 
C -3.896849 6.709753 -1.989023 7.5 0 7.5 
z
"/>
    </defs>
    <g clip-path="url(#p60586b5a0d)">
     <use xlink:href="#mee999975f7" x="71.184088" y="194.63125" style="fill: #ccccff"/>
    </g>
   </g>
   <g id="text_2">
    <!-- $g$ -->
    <g style="fill: #ffffff" transform="translate(249.279883 212.2291)scale(0.24 -0.24)">
     <use xlink:href="#Cmmi10-67" transform="translate(0 0.8125)"/>
    </g>
   </g>
  </g>
  <g id="axes_2">
   <g id="patch_3">
    <path d="M 325.330625 341.28 
L 522.173346 341.28 
L 522.173346 47.9825 
L 325.330625 47.9825 
L 325.330625 341.28 
z
" style="fill: none"/>
   </g>
   <g id="matplotlib.axis_3"/>
   <g id="matplotlib.axis_4">
    <g id="text_3">
     <!-- $\mu \frac{\mathrm{d}g}{\mathrm{d}\mu}$ -->
     <g style="fill: #ffffff" transform="translate(288.370625 34.0625)scale(0.24 -0.24)">
      <use xlink:href="#Cmmi10-b9" transform="translate(0 0.565625)"/>
      <use xlink:href="#Cmr10-64" transform="translate(64.205078 52.426563)scale(0.7)"/>
      <use xlink:href="#Cmmi10-67" transform="translate(103.067383 52.426563)scale(0.7)"/>
      <use xlink:href="#Cmr10-64" transform="translate(60.205078 -41.757812)scale(0.7)"/>
      <use xlink:href="#Cmmi10-b9" transform="translate(99.067383 -41.757812)scale(0.7)"/>
      <path d="M 60.205078 13.065625 
L 60.205078 19.315625 
L 141.210938 19.315625 
L 141.210938 13.065625 
L 60.205078 13.065625 
z
"/>
     </g>
    </g>
   </g>
   <g id="line2d_5">
    <path d="M 334.704088 194.63125 
L 522.173346 194.63125 
" clip-path="url(#pf65057dbb8)" style="fill: none; stroke: #ffffff; stroke-width: 2; stroke-linecap: square"/>
   </g>
   <g id="line2d_6">
    <path d="M 334.704088 341.28 
L 334.704088 47.9825 
" clip-path="url(#pf65057dbb8)" style="fill: none; stroke: #ffffff; stroke-width: 2; stroke-linecap: square"/>
   </g>
   <g id="line2d_7">
    <path d="M 334.704088 194.63125 
L 337.518942 197.330935 
L 340.333795 199.714892 
L 343.148649 201.798014 
L 345.963503 203.595195 
L 348.778357 205.121325 
L 351.59321 206.3913 
L 354.408064 207.42001 
L 357.222918 208.22235 
L 360.225428 208.845448 
L 363.227939 209.246005 
L 366.418107 209.447976 
L 369.795931 209.434331 
L 373.361412 209.19399 
L 377.302208 208.694213 
L 381.618317 207.911648 
L 386.497397 206.796517 
L 392.877732 205.093717 
L 409.39154 200.568035 
L 414.27062 199.520824 
L 418.586729 198.818234 
L 422.339867 198.421699 
L 425.905349 198.263523 
L 429.283173 198.338004 
L 432.473341 198.632394 
L 435.475851 199.128088 
L 438.478362 199.854232 
L 441.293216 200.760358 
L 444.10807 201.899805 
L 446.922923 203.287465 
L 449.737777 204.938233 
L 452.364974 206.729467 
L 454.992171 208.774978 
L 457.619367 211.086875 
L 460.434221 213.873269 
L 463.249075 216.994255 
L 466.063929 220.464726 
L 468.878782 224.299575 
L 471.693636 228.513694 
L 474.50849 233.121977 
L 477.323344 238.139316 
L 480.325854 243.958794 
L 483.328365 250.278707 
L 486.330875 257.117128 
L 489.333386 264.492132 
L 492.523554 272.936226 
L 495.713721 282.028155 
L 498.903889 291.789599 
L 502.094056 302.242238 
L 505.471881 314.087209 
L 508.849705 326.757123 
L 512.22753 340.277716 
L 515.793011 355.500768 
L 519.358493 371.730584 
L 522.173346 385.274625 
L 522.173346 385.274625 
" clip-path="url(#pf65057dbb8)" style="fill: none; stroke: #8dd3c7; stroke-width: 4; stroke-linecap: square"/>
   </g>
   <g id="line2d_8">
    <g clip-path="url(#pf65057dbb8)">
     <use xlink:href="#mee999975f7" x="334.704088" y="194.63125" style="fill: #ccccff"/>
    </g>
   </g>
   <g id="line2d_9">
    <defs>
     <path id="m71a374470d" d="M 0 12 
C 3.182437 12 6.234958 10.735604 8.485281 8.485281 
C 10.735604 6.234958 12 3.182437 12 0 
C 12 -3.182437 10.735604 -6.234958 8.485281 -8.485281 
C 6.234958 -10.735604 3.182437 -12 0 -12 
C -3.182437 -12 -6.234958 -10.735604 -8.485281 -8.485281 
C -10.735604 -6.234958 -12 -3.182437 -12 0 
C -12 3.182437 -10.735604 6.234958 -8.485281 8.485281 
C -6.234958 10.735604 -3.182437 12 0 12 
z
" style="stroke: #ffccff; stroke-width: 4"/>
    </defs>
    <g clip-path="url(#pf65057dbb8)">
     <use xlink:href="#m71a374470d" x="428.438717" y="196.097738" style="fill-opacity: 0; stroke: #ffccff; stroke-width: 4"/>
    </g>
   </g>
   <g id="text_4">
    <!-- $g$ -->
    <g style="fill: #ffffff" transform="translate(512.799883 212.2291)scale(0.24 -0.24)">
     <use xlink:href="#Cmmi10-67" transform="translate(0 0.8125)"/>
    </g>
   </g>
  </g>
  <g id="axes_3">
   <g id="patch_4">
    <path d="M 588.850625 341.28 
L 785.693346 341.28 
L 785.693346 47.9825 
L 588.850625 47.9825 
L 588.850625 341.28 
z
" style="fill: none"/>
   </g>
   <g id="matplotlib.axis_5"/>
   <g id="matplotlib.axis_6">
    <g id="text_5">
     <!-- $\mu \frac{\mathrm{d}g}{\mathrm{d}\mu}$ -->
     <g style="fill: #ffffff" transform="translate(551.890625 34.0625)scale(0.24 -0.24)">
      <use xlink:href="#Cmmi10-b9" transform="translate(0 0.565625)"/>
      <use xlink:href="#Cmr10-64" transform="translate(64.205078 52.426563)scale(0.7)"/>
      <use xlink:href="#Cmmi10-67" transform="translate(103.067383 52.426563)scale(0.7)"/>
      <use xlink:href="#Cmr10-64" transform="translate(60.205078 -41.757812)scale(0.7)"/>
      <use xlink:href="#Cmmi10-b9" transform="translate(99.067383 -41.757812)scale(0.7)"/>
      <path d="M 60.205078 13.065625 
L 60.205078 19.315625 
L 141.210938 19.315625 
L 141.210938 13.065625 
L 60.205078 13.065625 
z
"/>
     </g>
    </g>
   </g>
   <g id="line2d_10">
    <path d="M 598.224088 194.63125 
L 785.693346 194.63125 
" clip-path="url(#pd944fbed46)" style="fill: none; stroke: #ffffff; stroke-width: 2; stroke-linecap: square"/>
   </g>
   <g id="line2d_11">
    <path d="M 598.224088 341.28 
L 598.224088 47.9825 
" clip-path="url(#pd944fbed46)" style="fill: none; stroke: #ffffff; stroke-width: 2; stroke-linecap: square"/>
   </g>
   <g id="line2d_12">
    <path d="M 598.224088 194.63125 
L 602.35254 199.297703 
L 606.293335 203.420321 
L 610.23413 207.218931 
L 613.987269 210.535423 
L 617.740407 213.55803 
L 621.493545 216.286752 
L 625.059027 218.606827 
L 628.624508 220.661671 
L 632.18999 222.451283 
L 635.567814 223.902047 
L 638.945639 225.114763 
L 642.323463 226.089433 
L 645.701287 226.826055 
L 649.079112 227.324631 
L 652.26928 227.576931 
L 655.459447 227.6169 
L 658.649615 227.444536 
L 661.839782 227.059841 
L 665.217607 226.421082 
L 668.595431 225.544276 
L 671.973256 224.429423 
L 675.35108 223.076524 
L 678.728905 221.485577 
L 682.106729 219.656584 
L 685.67221 217.467729 
L 689.237692 215.013643 
L 692.803173 212.294325 
L 696.556312 209.145347 
L 700.30945 205.702485 
L 704.062588 201.965737 
L 708.003383 197.725859 
L 711.944179 193.161972 
L 716.072631 188.033238 
L 720.201083 182.548904 
L 724.517192 176.435068 
L 728.833301 169.932569 
L 733.337067 162.732975 
L 737.840833 155.110186 
L 742.532256 146.71977 
L 747.223679 137.870159 
L 752.102758 128.179449 
L 756.981838 117.992073 
L 762.048575 106.887188 
L 767.115312 95.246698 
L 772.369705 82.60935 
L 777.624099 69.395988 
L 783.066149 55.10348 
L 785.693346 47.9825 
L 785.693346 47.9825 
" clip-path="url(#pd944fbed46)" style="fill: none; stroke: #8dd3c7; stroke-width: 4; stroke-linecap: square"/>
   </g>
   <g id="line2d_13">
    <g clip-path="url(#pd944fbed46)">
     <use xlink:href="#mee999975f7" x="598.224088" y="194.63125" style="fill: #ccccff"/>
    </g>
   </g>
   <g id="line2d_14">
    <defs>
     <path id="m93149b9831" d="M 0 7.5 
C 1.989023 7.5 3.896849 6.709753 5.303301 5.303301 
C 6.709753 3.896849 7.5 1.989023 7.5 0 
C 7.5 -1.989023 6.709753 -3.896849 5.303301 -5.303301 
C 3.896849 -6.709753 1.989023 -7.5 0 -7.5 
C -1.989023 -7.5 -3.896849 -6.709753 -5.303301 -5.303301 
C -6.709753 -3.896849 -7.5 -1.989023 -7.5 0 
C -7.5 1.989023 -6.709753 3.896849 -5.303301 5.303301 
C -3.896849 6.709753 -1.989023 7.5 0 7.5 
z
"/>
    </defs>
    <g clip-path="url(#pd944fbed46)">
     <use xlink:href="#m93149b9831" x="710.705643" y="194.63125" style="fill: #ffcccc"/>
    </g>
   </g>
   <g id="text_6">
    <!-- $g$ -->
    <g style="fill: #ffffff" transform="translate(776.319883 212.2291)scale(0.24 -0.24)">
     <use xlink:href="#Cmmi10-67" transform="translate(0 0.8125)"/>
    </g>
   </g>
  </g>
  <g id="axes_4">
   <g id="patch_5">
    <path d="M 852.370625 341.28 
L 1049.213346 341.28 
L 1049.213346 47.9825 
L 852.370625 47.9825 
L 852.370625 341.28 
z
" style="fill: none"/>
   </g>
   <g id="matplotlib.axis_7"/>
   <g id="matplotlib.axis_8">
    <g id="text_7">
     <!-- $\mu \frac{\mathrm{d}g}{\mathrm{d}\mu}$ -->
     <g style="fill: #ffffff" transform="translate(815.410625 34.0625)scale(0.24 -0.24)">
      <use xlink:href="#Cmmi10-b9" transform="translate(0 0.565625)"/>
      <use xlink:href="#Cmr10-64" transform="translate(64.205078 52.426563)scale(0.7)"/>
      <use xlink:href="#Cmmi10-67" transform="translate(103.067383 52.426563)scale(0.7)"/>
      <use xlink:href="#Cmr10-64" transform="translate(60.205078 -41.757812)scale(0.7)"/>
      <use xlink:href="#Cmmi10-b9" transform="translate(99.067383 -41.757812)scale(0.7)"/>
      <path d="M 60.205078 13.065625 
L 60.205078 19.315625 
L 141.210938 19.315625 
L 141.210938 13.065625 
L 60.205078 13.065625 
z
"/>
     </g>
    </g>
   </g>
   <g id="line2d_15">
    <path d="M 861.744088 194.63125 
L 1049.213346 194.63125 
" clip-path="url(#p1d459b7418)" style="fill: none; stroke: #ffffff; stroke-width: 2; stroke-linecap: square"/>
   </g>
   <g id="line2d_16">
    <path d="M 861.744088 341.28 
L 861.744088 47.9825 
" clip-path="url(#p1d459b7418)" style="fill: none; stroke: #ffffff; stroke-width: 2; stroke-linecap: square"/>
   </g>
   <g id="line2d_17">
    <path d="M 861.744088 194.63125 
L 866.998482 194.516047 
L 872.252875 194.170438 
L 877.507269 193.594424 
L 882.761662 192.788003 
L 888.016056 191.751177 
L 893.27045 190.483945 
L 898.524843 188.986307 
L 903.779237 187.258264 
L 909.033631 185.299814 
L 914.475681 183.028524 
L 919.917732 180.510077 
L 925.359782 177.744472 
L 930.801833 174.731711 
L 936.43154 171.354972 
L 942.061248 167.713737 
L 947.690955 163.808006 
L 953.508319 159.494215 
L 959.325684 154.898001 
L 965.143048 150.019364 
L 971.14807 144.687115 
L 977.153091 139.053927 
L 983.158112 133.119802 
L 989.35079 126.685044 
L 995.543469 119.930244 
L 1001.923804 112.636019 
L 1008.304139 105.002063 
L 1014.872131 96.788713 
L 1021.440123 88.215353 
L 1028.195772 79.021456 
L 1034.951421 69.446683 
L 1041.70707 59.491036 
L 1048.650376 48.861951 
L 1049.213346 47.9825 
L 1049.213346 47.9825 
" clip-path="url(#p1d459b7418)" style="fill: none; stroke: #8dd3c7; stroke-width: 4; stroke-linecap: square"/>
   </g>
   <g id="line2d_18">
    <g clip-path="url(#p1d459b7418)">
     <use xlink:href="#m93149b9831" x="861.744088" y="194.63125" style="fill: #ffcccc"/>
    </g>
   </g>
   <g id="text_8">
    <!-- $g$ -->
    <g style="fill: #ffffff" transform="translate(1039.839883 212.2291)scale(0.24 -0.24)">
     <use xlink:href="#Cmmi10-67" transform="translate(0 0.8125)"/>
    </g>
   </g>
  </g>
  <g id="patch_6">
   <path d="M 864 380.16 
L 831.6 390.96 
L 831.6 381.24 
L 216 381.24 
L 216 379.08 
L 831.6 379.08 
L 831.6 369.36 
z
" style="fill: #ffffff; stroke: #ffffff; stroke-linejoin: miter"/>
  </g>
  <g id="text_9">
   <!-- Increasing $N_{\mathrm{f}}$ -->
   <g style="fill: #ffffff" transform="translate(467.4 410.4)scale(0.24 -0.24)">
    <defs>
     <path id="Futura-Medium-49" d="M 1306 4825 
L 1306 0 
L 578 0 
L 578 4825 
L 1306 4825 
z
" transform="scale(0.015625)"/>
     <path id="Futura-Medium-6e" d="M 444 3044 
L 1150 3044 
L 1150 2763 
Q 1519 3128 1981 3128 
Q 2513 3128 2809 2794 
Q 3066 2509 3066 1866 
L 3066 0 
L 2359 0 
L 2359 1700 
Q 2359 2150 2234 2322 
Q 2113 2497 1791 2497 
Q 1441 2497 1294 2266 
Q 1150 2038 1150 1469 
L 1150 0 
L 444 0 
L 444 3044 
z
" transform="scale(0.015625)"/>
     <path id="Futura-Medium-63" d="M 2813 2913 
L 2813 1978 
Q 2572 2272 2381 2381 
Q 2194 2494 1941 2494 
Q 1544 2494 1281 2216 
Q 1019 1938 1019 1519 
Q 1019 1091 1272 816 
Q 1528 541 1925 541 
Q 2178 541 2372 650 
Q 2559 756 2813 1063 
L 2813 134 
Q 2384 -88 1956 -88 
Q 1250 -88 775 369 
Q 300 828 300 1509 
Q 300 2191 781 2659 
Q 1263 3128 1963 3128 
Q 2413 3128 2813 2913 
z
" transform="scale(0.015625)"/>
     <path id="Futura-Medium-72" d="M 444 3044 
L 1147 3044 
L 1147 2772 
Q 1341 2975 1491 3050 
Q 1644 3128 1853 3128 
Q 2131 3128 2434 2947 
L 2113 2303 
Q 1913 2447 1722 2447 
Q 1147 2447 1147 1578 
L 1147 0 
L 444 0 
L 444 3044 
z
" transform="scale(0.015625)"/>
     <path id="Futura-Medium-65" d="M 3216 1356 
L 1034 1356 
Q 1063 981 1278 759 
Q 1494 541 1831 541 
Q 2094 541 2266 666 
Q 2434 791 2650 1128 
L 3244 797 
Q 3106 563 2953 395 
Q 2800 228 2625 120 
Q 2450 13 2247 -37 
Q 2044 -88 1806 -88 
Q 1125 -88 713 350 
Q 300 791 300 1519 
Q 300 2241 700 2688 
Q 1103 3128 1769 3128 
Q 2441 3128 2831 2700 
Q 3219 2275 3219 1522 
L 3216 1356 
z
M 2494 1931 
Q 2347 2494 1784 2494 
Q 1656 2494 1543 2455 
Q 1431 2416 1339 2342 
Q 1247 2269 1181 2166 
Q 1116 2063 1081 1931 
L 2494 1931 
z
" transform="scale(0.015625)"/>
     <path id="Futura-Medium-61" d="M 2688 3044 
L 3394 3044 
L 3394 0 
L 2688 0 
L 2688 319 
Q 2253 -88 1753 -88 
Q 1122 -88 709 369 
Q 300 834 300 1531 
Q 300 2216 709 2672 
Q 1119 3128 1734 3128 
Q 2266 3128 2688 2691 
L 2688 3044 
z
M 1019 1531 
Q 1019 1094 1253 819 
Q 1494 541 1859 541 
Q 2250 541 2491 809 
Q 2731 1088 2731 1516 
Q 2731 1944 2491 2222 
Q 2250 2494 1866 2494 
Q 1503 2494 1259 2219 
Q 1019 1941 1019 1531 
z
" transform="scale(0.015625)"/>
     <path id="Futura-Medium-73" d="M 2213 2525 
L 1631 2216 
Q 1494 2497 1291 2497 
Q 1194 2497 1125 2433 
Q 1056 2369 1056 2269 
Q 1056 2094 1463 1922 
Q 2022 1681 2215 1478 
Q 2409 1275 2409 931 
Q 2409 491 2084 194 
Q 1769 -88 1322 -88 
Q 556 -88 238 659 
L 838 938 
Q 963 719 1028 659 
Q 1156 541 1334 541 
Q 1691 541 1691 866 
Q 1691 1053 1416 1216 
Q 1309 1269 1203 1319 
Q 1097 1369 988 1422 
Q 681 1572 556 1722 
Q 397 1913 397 2213 
Q 397 2609 669 2869 
Q 947 3128 1344 3128 
Q 1928 3128 2213 2525 
z
" transform="scale(0.015625)"/>
     <path id="Futura-Medium-69" d="M 1147 3044 
L 1147 0 
L 444 0 
L 444 3044 
L 1147 3044 
z
M 338 4309 
Q 338 4494 472 4628 
Q 606 4763 794 4763 
Q 984 4763 1119 4628 
Q 1253 4497 1253 4306 
Q 1253 4116 1119 3981 
Q 988 3847 797 3847 
Q 606 3847 472 3981 
Q 338 4116 338 4309 
z
" transform="scale(0.015625)"/>
     <path id="Futura-Medium-67" d="M 3388 72 
Q 3388 -144 3373 -308 
Q 3359 -472 3334 -597 
Q 3259 -941 3041 -1188 
Q 2628 -1663 1906 -1663 
Q 1297 -1663 903 -1334 
Q 497 -997 434 -400 
L 1141 -400 
Q 1181 -625 1275 -747 
Q 1494 -1031 1913 -1031 
Q 2684 -1031 2684 -84 
L 2684 341 
Q 2266 -88 1719 -88 
Q 1097 -88 700 363 
Q 300 819 300 1503 
Q 300 2169 672 2634 
Q 1072 3128 1728 3128 
Q 2303 3128 2684 2700 
L 2684 3044 
L 3388 3044 
L 3388 72 
z
M 2713 1516 
Q 2713 1959 2475 2225 
Q 2234 2497 1859 2497 
Q 1459 2497 1228 2200 
Q 1019 1934 1019 1513 
Q 1019 1097 1228 831 
Q 1456 541 1859 541 
Q 2263 541 2497 834 
Q 2713 1100 2713 1516 
z
" transform="scale(0.015625)"/>
     <path id="Futura-Medium-20" transform="scale(0.015625)"/>
     <path id="Cmmi10-4e" d="M 300 0 
Q 238 0 238 84 
Q 241 100 250 139 
Q 259 178 276 201 
Q 294 225 319 225 
Q 931 225 1031 616 
L 1900 4116 
Q 1722 4147 1338 4147 
Q 1275 4147 1275 4231 
Q 1278 4247 1287 4286 
Q 1297 4325 1314 4348 
Q 1331 4372 1356 4372 
L 2463 4372 
Q 2509 4372 2522 4331 
L 3944 947 
L 4653 3781 
Q 4666 3850 4666 3878 
Q 4666 4147 4172 4147 
Q 4109 4147 4109 4231 
Q 4131 4313 4143 4342 
Q 4156 4372 4219 4372 
L 5588 4372 
Q 5650 4372 5650 4288 
Q 5647 4272 5637 4233 
Q 5628 4194 5611 4170 
Q 5594 4147 5569 4147 
Q 4956 4147 4856 3756 
L 3938 56 
Q 3916 0 3872 0 
L 3794 0 
Q 3750 0 3738 44 
L 2106 3916 
L 2094 3956 
Q 2081 3969 2081 3975 
L 1234 588 
Q 1228 572 1225 548 
Q 1222 525 1216 494 
Q 1216 328 1359 276 
Q 1503 225 1716 225 
Q 1778 225 1778 141 
Q 1756 53 1740 26 
Q 1725 0 1672 0 
L 300 0 
z
" transform="scale(0.015625)"/>
     <path id="Cmr10-66" d="M 206 0 
L 206 225 
Q 422 225 562 259 
Q 703 294 703 428 
L 703 2534 
L 213 2534 
L 213 2759 
L 703 2759 
L 703 3525 
Q 703 3731 789 3911 
Q 875 4091 1020 4225 
Q 1166 4359 1355 4436 
Q 1544 4513 1747 4513 
Q 1963 4513 2136 4384 
Q 2309 4256 2309 4044 
Q 2309 3922 2226 3839 
Q 2144 3756 2022 3756 
Q 1900 3756 1814 3839 
Q 1728 3922 1728 4044 
Q 1728 4244 1900 4313 
Q 1797 4347 1716 4347 
Q 1528 4347 1395 4214 
Q 1263 4081 1197 3890 
Q 1131 3700 1131 3513 
L 1131 2759 
L 1869 2759 
L 1869 2534 
L 1153 2534 
L 1153 428 
Q 1153 297 1340 261 
Q 1528 225 1772 225 
L 1772 0 
L 206 0 
z
" transform="scale(0.015625)"/>
    </defs>
    <use xlink:href="#Futura-Medium-49" transform="translate(0 0.609375)"/>
    <use xlink:href="#Futura-Medium-6e" transform="translate(29.492188 0.609375)"/>
    <use xlink:href="#Futura-Medium-63" transform="translate(84.326172 0.609375)"/>
    <use xlink:href="#Futura-Medium-72" transform="translate(131.982422 0.609375)"/>
    <use xlink:href="#Futura-Medium-65" transform="translate(170.259766 0.609375)"/>
    <use xlink:href="#Futura-Medium-61" transform="translate(225.582031 0.609375)"/>
    <use xlink:href="#Futura-Medium-73" transform="translate(285.542969 0.609375)"/>
    <use xlink:href="#Futura-Medium-69" transform="translate(326.119141 0.609375)"/>
    <use xlink:href="#Futura-Medium-6e" transform="translate(351.021484 0.609375)"/>
    <use xlink:href="#Futura-Medium-67" transform="translate(405.855469 0.609375)"/>
    <use xlink:href="#Futura-Medium-20" transform="translate(465.71875 0.609375)"/>
    <use xlink:href="#Cmmi10-4e" transform="translate(496.578125 0.609375)"/>
    <use xlink:href="#Cmr10-66" transform="translate(576.900391 -16.396875)scale(0.7)"/>
   </g>
  </g>
 </g>
 <defs>
  <clipPath id="p60586b5a0d">
   <rect x="61.810625" y="47.9825" width="196.842721" height="293.2975"/>
  </clipPath>
  <clipPath id="pf65057dbb8">
   <rect x="325.330625" y="47.9825" width="196.842721" height="293.2975"/>
  </clipPath>
  <clipPath id="pd944fbed46">
   <rect x="588.850625" y="47.9825" width="196.842721" height="293.2975"/>
  </clipPath>
  <clipPath id="p1d459b7418">
   <rect x="852.370625" y="47.9825" width="196.842721" height="293.2975"/>
  </clipPath>
 </defs>
</svg>
